%FSLAX45Y45*%
G04 Gerber Fmt 4.5, Leading zero omitted, Abs format (unit mm)*
G04 Created by KiCad (PCBNEW (6.0.2)) date 2025-01-10 17:32:06*
%MOMM*%
%LPD*%
G01*
G04 APERTURE LIST*
%TA.AperFunction,Profile*%
%ADD10C,0.100000*%
%TD*%
%ADD11C,0.200000*%
G04 APERTURE END LIST*
D10*
X7112000Y-5842000D02*
X7112000Y-16510000D01*
X16510000Y-16510000D02*
X16510000Y-5842000D01*
X16510000Y-16510000D02*
X7112000Y-16510000D01*
X16510000Y-5842000D02*
X7112000Y-5842000D01*
D11*
X7364619Y-16825476D02*
X7364619Y-16625476D01*
X7412238Y-16625476D01*
X7440809Y-16635000D01*
X7459857Y-16654048D01*
X7469381Y-16673095D01*
X7478905Y-16711190D01*
X7478905Y-16739762D01*
X7469381Y-16777857D01*
X7459857Y-16796905D01*
X7440809Y-16815952D01*
X7412238Y-16825476D01*
X7364619Y-16825476D01*
X7564619Y-16825476D02*
X7564619Y-16692143D01*
X7564619Y-16730238D02*
X7574143Y-16711190D01*
X7583667Y-16701667D01*
X7602714Y-16692143D01*
X7621762Y-16692143D01*
X7688428Y-16825476D02*
X7688428Y-16692143D01*
X7688428Y-16625476D02*
X7678905Y-16635000D01*
X7688428Y-16644524D01*
X7697952Y-16635000D01*
X7688428Y-16625476D01*
X7688428Y-16644524D01*
X7812238Y-16825476D02*
X7793190Y-16815952D01*
X7783667Y-16796905D01*
X7783667Y-16625476D01*
X7917000Y-16825476D02*
X7897952Y-16815952D01*
X7888428Y-16796905D01*
X7888428Y-16625476D01*
X8145571Y-16825476D02*
X8145571Y-16625476D01*
X8212238Y-16768333D01*
X8278905Y-16625476D01*
X8278905Y-16825476D01*
X8459857Y-16825476D02*
X8459857Y-16720714D01*
X8450333Y-16701667D01*
X8431286Y-16692143D01*
X8393190Y-16692143D01*
X8374143Y-16701667D01*
X8459857Y-16815952D02*
X8440810Y-16825476D01*
X8393190Y-16825476D01*
X8374143Y-16815952D01*
X8364619Y-16796905D01*
X8364619Y-16777857D01*
X8374143Y-16758809D01*
X8393190Y-16749286D01*
X8440810Y-16749286D01*
X8459857Y-16739762D01*
X8555095Y-16692143D02*
X8555095Y-16892143D01*
X8555095Y-16701667D02*
X8574143Y-16692143D01*
X8612238Y-16692143D01*
X8631286Y-16701667D01*
X8640810Y-16711190D01*
X8650333Y-16730238D01*
X8650333Y-16787381D01*
X8640810Y-16806429D01*
X8631286Y-16815952D01*
X8612238Y-16825476D01*
X8574143Y-16825476D01*
X8555095Y-16815952D01*
X8736048Y-16806429D02*
X8745571Y-16815952D01*
X8736048Y-16825476D01*
X8726524Y-16815952D01*
X8736048Y-16806429D01*
X8736048Y-16825476D01*
X8736048Y-16701667D02*
X8745571Y-16711190D01*
X8736048Y-16720714D01*
X8726524Y-16711190D01*
X8736048Y-16701667D01*
X8736048Y-16720714D01*
M02*
