%FSLAX45Y45*%
G04 Gerber Fmt 4.5, Leading zero omitted, Abs format (unit mm)*
G04 Created by KiCad (PCBNEW (6.0.2)) date 2025-01-10 17:32:06*
%MOMM*%
%LPD*%
G01*
G04 APERTURE LIST*
%TA.AperFunction,Profile*%
%ADD10C,0.100000*%
%TD*%
%ADD11C,0.200000*%
%ADD12C,0.040000*%
%ADD13C,0.080000*%
%ADD14C,0.090000*%
%ADD15C,0.100000*%
G04 APERTURE END LIST*
D10*
X7112000Y-5842000D02*
X7112000Y-16510000D01*
X16510000Y-16510000D02*
X16510000Y-5842000D01*
X16510000Y-16510000D02*
X7112000Y-16510000D01*
X16510000Y-5842000D02*
X7112000Y-5842000D01*
D11*
D12*
X8362000Y-13442000D02*
X8402000Y-13482000D01*
X8402000Y-13442000D02*
X8362000Y-13482000D01*
X9378000Y-9632000D02*
X9418000Y-9672000D01*
X9418000Y-9632000D02*
X9378000Y-9672000D01*
X10394000Y-7346000D02*
X10434000Y-7386000D01*
X10434000Y-7346000D02*
X10394000Y-7386000D01*
X11664000Y-6584000D02*
X11704000Y-6624000D01*
X11704000Y-6584000D02*
X11664000Y-6624000D01*
D13*
X7914000Y-8386000D02*
G75*
G03*
X7914000Y-8386000I-40000J0D01*
G01*
X7914000Y-8636000D02*
G75*
G03*
X7914000Y-8636000I-40000J0D01*
G01*
X7914000Y-11942000D02*
G75*
G03*
X7914000Y-11942000I-40000J0D01*
G01*
X7914000Y-12192000D02*
G75*
G03*
X7914000Y-12192000I-40000J0D01*
G01*
X8930000Y-9017000D02*
G75*
G03*
X8930000Y-9017000I-40000J0D01*
G01*
X9946000Y-9017000D02*
G75*
G03*
X9946000Y-9017000I-40000J0D01*
G01*
X10454000Y-10795000D02*
G75*
G03*
X10454000Y-10795000I-40000J0D01*
G01*
X10454000Y-11557000D02*
G75*
G03*
X10454000Y-11557000I-40000J0D01*
G01*
X10835000Y-11938000D02*
G75*
G03*
X10835000Y-11938000I-40000J0D01*
G01*
X10835000Y-12954000D02*
G75*
G03*
X10835000Y-12954000I-40000J0D01*
G01*
X10962000Y-8128000D02*
G75*
G03*
X10962000Y-8128000I-40000J0D01*
G01*
X11978000Y-8128000D02*
G75*
G03*
X11978000Y-8128000I-40000J0D01*
G01*
X13756000Y-8386000D02*
G75*
G03*
X13756000Y-8386000I-40000J0D01*
G01*
X13756000Y-8636000D02*
G75*
G03*
X13756000Y-8636000I-40000J0D01*
G01*
X13756000Y-11942000D02*
G75*
G03*
X13756000Y-11942000I-40000J0D01*
G01*
X13756000Y-12192000D02*
G75*
G03*
X13756000Y-12192000I-40000J0D01*
G01*
X14264000Y-9144000D02*
G75*
G03*
X14264000Y-9144000I-40000J0D01*
G01*
X14264000Y-13589000D02*
G75*
G03*
X14264000Y-13589000I-40000J0D01*
G01*
X14391000Y-12446000D02*
G75*
G03*
X14391000Y-12446000I-40000J0D01*
G01*
X14772000Y-9652000D02*
G75*
G03*
X14772000Y-9652000I-40000J0D01*
G01*
X15280000Y-9144000D02*
G75*
G03*
X15280000Y-9144000I-40000J0D01*
G01*
X15280000Y-13589000D02*
G75*
G03*
X15280000Y-13589000I-40000J0D01*
G01*
X15407000Y-12446000D02*
G75*
G03*
X15407000Y-12446000I-40000J0D01*
G01*
X15788000Y-9652000D02*
G75*
G03*
X15788000Y-9652000I-40000J0D01*
G01*
D14*
X12192000Y-14433000D02*
X12192000Y-14523000D01*
X12147000Y-14478000D02*
X12237000Y-14478000D01*
X12192000Y-14687000D02*
X12192000Y-14777000D01*
X12147000Y-14732000D02*
X12237000Y-14732000D01*
X12700000Y-14433000D02*
X12700000Y-14523000D01*
X12655000Y-14478000D02*
X12745000Y-14478000D01*
X12700000Y-14687000D02*
X12700000Y-14777000D01*
X12655000Y-14732000D02*
X12745000Y-14732000D01*
X13208000Y-14433000D02*
X13208000Y-14523000D01*
X13163000Y-14478000D02*
X13253000Y-14478000D01*
X13208000Y-14687000D02*
X13208000Y-14777000D01*
X13163000Y-14732000D02*
X13253000Y-14732000D01*
X13716000Y-14433000D02*
X13716000Y-14523000D01*
X13671000Y-14478000D02*
X13761000Y-14478000D01*
X13716000Y-14687000D02*
X13716000Y-14777000D01*
X13671000Y-14732000D02*
X13761000Y-14732000D01*
X14224000Y-14433000D02*
X14224000Y-14523000D01*
X14179000Y-14478000D02*
X14269000Y-14478000D01*
X14224000Y-14687000D02*
X14224000Y-14777000D01*
X14179000Y-14732000D02*
X14269000Y-14732000D01*
X14732000Y-14433000D02*
X14732000Y-14523000D01*
X14687000Y-14478000D02*
X14777000Y-14478000D01*
X14732000Y-14687000D02*
X14732000Y-14777000D01*
X14687000Y-14732000D02*
X14777000Y-14732000D01*
X15240000Y-14433000D02*
X15240000Y-14523000D01*
X15195000Y-14478000D02*
X15285000Y-14478000D01*
X15240000Y-14687000D02*
X15240000Y-14777000D01*
X15195000Y-14732000D02*
X15285000Y-14732000D01*
X15748000Y-14433000D02*
X15748000Y-14523000D01*
X15703000Y-14478000D02*
X15793000Y-14478000D01*
X15748000Y-14687000D02*
X15748000Y-14777000D01*
X15703000Y-14732000D02*
X15793000Y-14732000D01*
D15*
X8163356Y-7147356D02*
X8163356Y-7076644D01*
X8092644Y-7076644D01*
X8092644Y-7147356D01*
X8163356Y-7147356D01*
X8163356Y-7401356D02*
X8163356Y-7330644D01*
X8092644Y-7330644D01*
X8092644Y-7401356D01*
X8163356Y-7401356D01*
X8163356Y-7655356D02*
X8163356Y-7584644D01*
X8092644Y-7584644D01*
X8092644Y-7655356D01*
X8163356Y-7655356D01*
X8163356Y-7909356D02*
X8163356Y-7838644D01*
X8092644Y-7838644D01*
X8092644Y-7909356D01*
X8163356Y-7909356D01*
X8163356Y-10703356D02*
X8163356Y-10632644D01*
X8092644Y-10632644D01*
X8092644Y-10703356D01*
X8163356Y-10703356D01*
X8163356Y-10957356D02*
X8163356Y-10886644D01*
X8092644Y-10886644D01*
X8092644Y-10957356D01*
X8163356Y-10957356D01*
X8163356Y-11211356D02*
X8163356Y-11140644D01*
X8092644Y-11140644D01*
X8092644Y-11211356D01*
X8163356Y-11211356D01*
X8163356Y-11465356D02*
X8163356Y-11394644D01*
X8092644Y-11394644D01*
X8092644Y-11465356D01*
X8163356Y-11465356D01*
X8671356Y-6639356D02*
X8671356Y-6568644D01*
X8600644Y-6568644D01*
X8600644Y-6639356D01*
X8671356Y-6639356D01*
X8671356Y-6893356D02*
X8671356Y-6822644D01*
X8600644Y-6822644D01*
X8600644Y-6893356D01*
X8671356Y-6893356D01*
X8671356Y-7147356D02*
X8671356Y-7076644D01*
X8600644Y-7076644D01*
X8600644Y-7147356D01*
X8671356Y-7147356D01*
X8671356Y-7401356D02*
X8671356Y-7330644D01*
X8600644Y-7330644D01*
X8600644Y-7401356D01*
X8671356Y-7401356D01*
X8671356Y-7655356D02*
X8671356Y-7584644D01*
X8600644Y-7584644D01*
X8600644Y-7655356D01*
X8671356Y-7655356D01*
X8671356Y-7909356D02*
X8671356Y-7838644D01*
X8600644Y-7838644D01*
X8600644Y-7909356D01*
X8671356Y-7909356D01*
X8671356Y-8163356D02*
X8671356Y-8092644D01*
X8600644Y-8092644D01*
X8600644Y-8163356D01*
X8671356Y-8163356D01*
X8671356Y-8417356D02*
X8671356Y-8346644D01*
X8600644Y-8346644D01*
X8600644Y-8417356D01*
X8671356Y-8417356D01*
X8671356Y-10195356D02*
X8671356Y-10124644D01*
X8600644Y-10124644D01*
X8600644Y-10195356D01*
X8671356Y-10195356D01*
X8671356Y-10449356D02*
X8671356Y-10378644D01*
X8600644Y-10378644D01*
X8600644Y-10449356D01*
X8671356Y-10449356D01*
X8671356Y-10703356D02*
X8671356Y-10632644D01*
X8600644Y-10632644D01*
X8600644Y-10703356D01*
X8671356Y-10703356D01*
X8671356Y-10957356D02*
X8671356Y-10886644D01*
X8600644Y-10886644D01*
X8600644Y-10957356D01*
X8671356Y-10957356D01*
X8671356Y-11211356D02*
X8671356Y-11140644D01*
X8600644Y-11140644D01*
X8600644Y-11211356D01*
X8671356Y-11211356D01*
X8671356Y-11465356D02*
X8671356Y-11394644D01*
X8600644Y-11394644D01*
X8600644Y-11465356D01*
X8671356Y-11465356D01*
X8671356Y-11719356D02*
X8671356Y-11648644D01*
X8600644Y-11648644D01*
X8600644Y-11719356D01*
X8671356Y-11719356D01*
X8671356Y-11973356D02*
X8671356Y-11902644D01*
X8600644Y-11902644D01*
X8600644Y-11973356D01*
X8671356Y-11973356D01*
X9433356Y-7655356D02*
X9433356Y-7584644D01*
X9362644Y-7584644D01*
X9362644Y-7655356D01*
X9433356Y-7655356D01*
X9433356Y-7909356D02*
X9433356Y-7838644D01*
X9362644Y-7838644D01*
X9362644Y-7909356D01*
X9433356Y-7909356D01*
X9433356Y-8163356D02*
X9433356Y-8092644D01*
X9362644Y-8092644D01*
X9362644Y-8163356D01*
X9433356Y-8163356D01*
X9433356Y-11211356D02*
X9433356Y-11140644D01*
X9362644Y-11140644D01*
X9362644Y-11211356D01*
X9433356Y-11211356D01*
X9433356Y-11465356D02*
X9433356Y-11394644D01*
X9362644Y-11394644D01*
X9362644Y-11465356D01*
X9433356Y-11465356D01*
X9433356Y-11719356D02*
X9433356Y-11648644D01*
X9362644Y-11648644D01*
X9362644Y-11719356D01*
X9433356Y-11719356D01*
X9687356Y-7655356D02*
X9687356Y-7584644D01*
X9616644Y-7584644D01*
X9616644Y-7655356D01*
X9687356Y-7655356D01*
X9687356Y-7909356D02*
X9687356Y-7838644D01*
X9616644Y-7838644D01*
X9616644Y-7909356D01*
X9687356Y-7909356D01*
X9687356Y-8163356D02*
X9687356Y-8092644D01*
X9616644Y-8092644D01*
X9616644Y-8163356D01*
X9687356Y-8163356D01*
X9687356Y-11211356D02*
X9687356Y-11140644D01*
X9616644Y-11140644D01*
X9616644Y-11211356D01*
X9687356Y-11211356D01*
X9687356Y-11465356D02*
X9687356Y-11394644D01*
X9616644Y-11394644D01*
X9616644Y-11465356D01*
X9687356Y-11465356D01*
X9687356Y-11719356D02*
X9687356Y-11648644D01*
X9616644Y-11648644D01*
X9616644Y-11719356D01*
X9687356Y-11719356D01*
X9941356Y-6639356D02*
X9941356Y-6568644D01*
X9870644Y-6568644D01*
X9870644Y-6639356D01*
X9941356Y-6639356D01*
X9941356Y-6893356D02*
X9941356Y-6822644D01*
X9870644Y-6822644D01*
X9870644Y-6893356D01*
X9941356Y-6893356D01*
X9941356Y-7147356D02*
X9941356Y-7076644D01*
X9870644Y-7076644D01*
X9870644Y-7147356D01*
X9941356Y-7147356D01*
X9941356Y-7401356D02*
X9941356Y-7330644D01*
X9870644Y-7330644D01*
X9870644Y-7401356D01*
X9941356Y-7401356D01*
X9941356Y-7655356D02*
X9941356Y-7584644D01*
X9870644Y-7584644D01*
X9870644Y-7655356D01*
X9941356Y-7655356D01*
X9941356Y-7909356D02*
X9941356Y-7838644D01*
X9870644Y-7838644D01*
X9870644Y-7909356D01*
X9941356Y-7909356D01*
X9941356Y-8163356D02*
X9941356Y-8092644D01*
X9870644Y-8092644D01*
X9870644Y-8163356D01*
X9941356Y-8163356D01*
X9941356Y-8417356D02*
X9941356Y-8346644D01*
X9870644Y-8346644D01*
X9870644Y-8417356D01*
X9941356Y-8417356D01*
X9941356Y-10195356D02*
X9941356Y-10124644D01*
X9870644Y-10124644D01*
X9870644Y-10195356D01*
X9941356Y-10195356D01*
X9941356Y-10449356D02*
X9941356Y-10378644D01*
X9870644Y-10378644D01*
X9870644Y-10449356D01*
X9941356Y-10449356D01*
X9941356Y-10703356D02*
X9941356Y-10632644D01*
X9870644Y-10632644D01*
X9870644Y-10703356D01*
X9941356Y-10703356D01*
X9941356Y-10957356D02*
X9941356Y-10886644D01*
X9870644Y-10886644D01*
X9870644Y-10957356D01*
X9941356Y-10957356D01*
X9941356Y-11211356D02*
X9941356Y-11140644D01*
X9870644Y-11140644D01*
X9870644Y-11211356D01*
X9941356Y-11211356D01*
X9941356Y-11465356D02*
X9941356Y-11394644D01*
X9870644Y-11394644D01*
X9870644Y-11465356D01*
X9941356Y-11465356D01*
X9941356Y-11719356D02*
X9941356Y-11648644D01*
X9870644Y-11648644D01*
X9870644Y-11719356D01*
X9941356Y-11719356D01*
X9941356Y-11973356D02*
X9941356Y-11902644D01*
X9870644Y-11902644D01*
X9870644Y-11973356D01*
X9941356Y-11973356D01*
X11211356Y-16291356D02*
X11211356Y-16220644D01*
X11140644Y-16220644D01*
X11140644Y-16291356D01*
X11211356Y-16291356D01*
X11465356Y-16291356D02*
X11465356Y-16220644D01*
X11394644Y-16220644D01*
X11394644Y-16291356D01*
X11465356Y-16291356D01*
X11719356Y-16291356D02*
X11719356Y-16220644D01*
X11648644Y-16220644D01*
X11648644Y-16291356D01*
X11719356Y-16291356D01*
X11973356Y-16291356D02*
X11973356Y-16220644D01*
X11902644Y-16220644D01*
X11902644Y-16291356D01*
X11973356Y-16291356D01*
X12227356Y-16291356D02*
X12227356Y-16220644D01*
X12156644Y-16220644D01*
X12156644Y-16291356D01*
X12227356Y-16291356D01*
X12481356Y-16291356D02*
X12481356Y-16220644D01*
X12410644Y-16220644D01*
X12410644Y-16291356D01*
X12481356Y-16291356D01*
X12735356Y-16291356D02*
X12735356Y-16220644D01*
X12664644Y-16220644D01*
X12664644Y-16291356D01*
X12735356Y-16291356D01*
X12989356Y-16291356D02*
X12989356Y-16220644D01*
X12918644Y-16220644D01*
X12918644Y-16291356D01*
X12989356Y-16291356D01*
X13243356Y-16291356D02*
X13243356Y-16220644D01*
X13172644Y-16220644D01*
X13172644Y-16291356D01*
X13243356Y-16291356D01*
X13497356Y-16291356D02*
X13497356Y-16220644D01*
X13426644Y-16220644D01*
X13426644Y-16291356D01*
X13497356Y-16291356D01*
X14005356Y-7147356D02*
X14005356Y-7076644D01*
X13934644Y-7076644D01*
X13934644Y-7147356D01*
X14005356Y-7147356D01*
X14005356Y-7401356D02*
X14005356Y-7330644D01*
X13934644Y-7330644D01*
X13934644Y-7401356D01*
X14005356Y-7401356D01*
X14005356Y-7655356D02*
X14005356Y-7584644D01*
X13934644Y-7584644D01*
X13934644Y-7655356D01*
X14005356Y-7655356D01*
X14005356Y-7909356D02*
X14005356Y-7838644D01*
X13934644Y-7838644D01*
X13934644Y-7909356D01*
X14005356Y-7909356D01*
X14005356Y-10703356D02*
X14005356Y-10632644D01*
X13934644Y-10632644D01*
X13934644Y-10703356D01*
X14005356Y-10703356D01*
X14005356Y-10957356D02*
X14005356Y-10886644D01*
X13934644Y-10886644D01*
X13934644Y-10957356D01*
X14005356Y-10957356D01*
X14005356Y-11211356D02*
X14005356Y-11140644D01*
X13934644Y-11140644D01*
X13934644Y-11211356D01*
X14005356Y-11211356D01*
X14005356Y-11465356D02*
X14005356Y-11394644D01*
X13934644Y-11394644D01*
X13934644Y-11465356D01*
X14005356Y-11465356D01*
X14513356Y-6639356D02*
X14513356Y-6568644D01*
X14442644Y-6568644D01*
X14442644Y-6639356D01*
X14513356Y-6639356D01*
X14513356Y-6893356D02*
X14513356Y-6822644D01*
X14442644Y-6822644D01*
X14442644Y-6893356D01*
X14513356Y-6893356D01*
X14513356Y-7147356D02*
X14513356Y-7076644D01*
X14442644Y-7076644D01*
X14442644Y-7147356D01*
X14513356Y-7147356D01*
X14513356Y-7401356D02*
X14513356Y-7330644D01*
X14442644Y-7330644D01*
X14442644Y-7401356D01*
X14513356Y-7401356D01*
X14513356Y-7655356D02*
X14513356Y-7584644D01*
X14442644Y-7584644D01*
X14442644Y-7655356D01*
X14513356Y-7655356D01*
X14513356Y-7909356D02*
X14513356Y-7838644D01*
X14442644Y-7838644D01*
X14442644Y-7909356D01*
X14513356Y-7909356D01*
X14513356Y-8163356D02*
X14513356Y-8092644D01*
X14442644Y-8092644D01*
X14442644Y-8163356D01*
X14513356Y-8163356D01*
X14513356Y-8417356D02*
X14513356Y-8346644D01*
X14442644Y-8346644D01*
X14442644Y-8417356D01*
X14513356Y-8417356D01*
X14513356Y-10195356D02*
X14513356Y-10124644D01*
X14442644Y-10124644D01*
X14442644Y-10195356D01*
X14513356Y-10195356D01*
X14513356Y-10449356D02*
X14513356Y-10378644D01*
X14442644Y-10378644D01*
X14442644Y-10449356D01*
X14513356Y-10449356D01*
X14513356Y-10703356D02*
X14513356Y-10632644D01*
X14442644Y-10632644D01*
X14442644Y-10703356D01*
X14513356Y-10703356D01*
X14513356Y-10957356D02*
X14513356Y-10886644D01*
X14442644Y-10886644D01*
X14442644Y-10957356D01*
X14513356Y-10957356D01*
X14513356Y-11211356D02*
X14513356Y-11140644D01*
X14442644Y-11140644D01*
X14442644Y-11211356D01*
X14513356Y-11211356D01*
X14513356Y-11465356D02*
X14513356Y-11394644D01*
X14442644Y-11394644D01*
X14442644Y-11465356D01*
X14513356Y-11465356D01*
X14513356Y-11719356D02*
X14513356Y-11648644D01*
X14442644Y-11648644D01*
X14442644Y-11719356D01*
X14513356Y-11719356D01*
X14513356Y-11973356D02*
X14513356Y-11902644D01*
X14442644Y-11902644D01*
X14442644Y-11973356D01*
X14513356Y-11973356D01*
X15275356Y-7655356D02*
X15275356Y-7584644D01*
X15204644Y-7584644D01*
X15204644Y-7655356D01*
X15275356Y-7655356D01*
X15275356Y-7909356D02*
X15275356Y-7838644D01*
X15204644Y-7838644D01*
X15204644Y-7909356D01*
X15275356Y-7909356D01*
X15275356Y-8163356D02*
X15275356Y-8092644D01*
X15204644Y-8092644D01*
X15204644Y-8163356D01*
X15275356Y-8163356D01*
X15275356Y-11211356D02*
X15275356Y-11140644D01*
X15204644Y-11140644D01*
X15204644Y-11211356D01*
X15275356Y-11211356D01*
X15275356Y-11465356D02*
X15275356Y-11394644D01*
X15204644Y-11394644D01*
X15204644Y-11465356D01*
X15275356Y-11465356D01*
X15275356Y-11719356D02*
X15275356Y-11648644D01*
X15204644Y-11648644D01*
X15204644Y-11719356D01*
X15275356Y-11719356D01*
X15529356Y-7655356D02*
X15529356Y-7584644D01*
X15458644Y-7584644D01*
X15458644Y-7655356D01*
X15529356Y-7655356D01*
X15529356Y-7909356D02*
X15529356Y-7838644D01*
X15458644Y-7838644D01*
X15458644Y-7909356D01*
X15529356Y-7909356D01*
X15529356Y-8163356D02*
X15529356Y-8092644D01*
X15458644Y-8092644D01*
X15458644Y-8163356D01*
X15529356Y-8163356D01*
X15529356Y-11211356D02*
X15529356Y-11140644D01*
X15458644Y-11140644D01*
X15458644Y-11211356D01*
X15529356Y-11211356D01*
X15529356Y-11465356D02*
X15529356Y-11394644D01*
X15458644Y-11394644D01*
X15458644Y-11465356D01*
X15529356Y-11465356D01*
X15529356Y-11719356D02*
X15529356Y-11648644D01*
X15458644Y-11648644D01*
X15458644Y-11719356D01*
X15529356Y-11719356D01*
X15783356Y-6639356D02*
X15783356Y-6568644D01*
X15712644Y-6568644D01*
X15712644Y-6639356D01*
X15783356Y-6639356D01*
X15783356Y-6893356D02*
X15783356Y-6822644D01*
X15712644Y-6822644D01*
X15712644Y-6893356D01*
X15783356Y-6893356D01*
X15783356Y-7147356D02*
X15783356Y-7076644D01*
X15712644Y-7076644D01*
X15712644Y-7147356D01*
X15783356Y-7147356D01*
X15783356Y-7401356D02*
X15783356Y-7330644D01*
X15712644Y-7330644D01*
X15712644Y-7401356D01*
X15783356Y-7401356D01*
X15783356Y-7655356D02*
X15783356Y-7584644D01*
X15712644Y-7584644D01*
X15712644Y-7655356D01*
X15783356Y-7655356D01*
X15783356Y-7909356D02*
X15783356Y-7838644D01*
X15712644Y-7838644D01*
X15712644Y-7909356D01*
X15783356Y-7909356D01*
X15783356Y-8163356D02*
X15783356Y-8092644D01*
X15712644Y-8092644D01*
X15712644Y-8163356D01*
X15783356Y-8163356D01*
X15783356Y-8417356D02*
X15783356Y-8346644D01*
X15712644Y-8346644D01*
X15712644Y-8417356D01*
X15783356Y-8417356D01*
X15783356Y-10195356D02*
X15783356Y-10124644D01*
X15712644Y-10124644D01*
X15712644Y-10195356D01*
X15783356Y-10195356D01*
X15783356Y-10449356D02*
X15783356Y-10378644D01*
X15712644Y-10378644D01*
X15712644Y-10449356D01*
X15783356Y-10449356D01*
X15783356Y-10703356D02*
X15783356Y-10632644D01*
X15712644Y-10632644D01*
X15712644Y-10703356D01*
X15783356Y-10703356D01*
X15783356Y-10957356D02*
X15783356Y-10886644D01*
X15712644Y-10886644D01*
X15712644Y-10957356D01*
X15783356Y-10957356D01*
X15783356Y-11211356D02*
X15783356Y-11140644D01*
X15712644Y-11140644D01*
X15712644Y-11211356D01*
X15783356Y-11211356D01*
X15783356Y-11465356D02*
X15783356Y-11394644D01*
X15712644Y-11394644D01*
X15712644Y-11465356D01*
X15783356Y-11465356D01*
X15783356Y-11719356D02*
X15783356Y-11648644D01*
X15712644Y-11648644D01*
X15712644Y-11719356D01*
X15783356Y-11719356D01*
X15783356Y-11973356D02*
X15783356Y-11902644D01*
X15712644Y-11902644D01*
X15712644Y-11973356D01*
X15783356Y-11973356D01*
D11*
X7364619Y-16825476D02*
X7364619Y-16625476D01*
X7412238Y-16625476D01*
X7440809Y-16635000D01*
X7459857Y-16654048D01*
X7469381Y-16673095D01*
X7478905Y-16711190D01*
X7478905Y-16739762D01*
X7469381Y-16777857D01*
X7459857Y-16796905D01*
X7440809Y-16815952D01*
X7412238Y-16825476D01*
X7364619Y-16825476D01*
X7564619Y-16825476D02*
X7564619Y-16692143D01*
X7564619Y-16730238D02*
X7574143Y-16711190D01*
X7583667Y-16701667D01*
X7602714Y-16692143D01*
X7621762Y-16692143D01*
X7688428Y-16825476D02*
X7688428Y-16692143D01*
X7688428Y-16625476D02*
X7678905Y-16635000D01*
X7688428Y-16644524D01*
X7697952Y-16635000D01*
X7688428Y-16625476D01*
X7688428Y-16644524D01*
X7812238Y-16825476D02*
X7793190Y-16815952D01*
X7783667Y-16796905D01*
X7783667Y-16625476D01*
X7917000Y-16825476D02*
X7897952Y-16815952D01*
X7888428Y-16796905D01*
X7888428Y-16625476D01*
X8145571Y-16825476D02*
X8145571Y-16625476D01*
X8212238Y-16768333D01*
X8278905Y-16625476D01*
X8278905Y-16825476D01*
X8459857Y-16825476D02*
X8459857Y-16720714D01*
X8450333Y-16701667D01*
X8431286Y-16692143D01*
X8393190Y-16692143D01*
X8374143Y-16701667D01*
X8459857Y-16815952D02*
X8440810Y-16825476D01*
X8393190Y-16825476D01*
X8374143Y-16815952D01*
X8364619Y-16796905D01*
X8364619Y-16777857D01*
X8374143Y-16758809D01*
X8393190Y-16749286D01*
X8440810Y-16749286D01*
X8459857Y-16739762D01*
X8555095Y-16692143D02*
X8555095Y-16892143D01*
X8555095Y-16701667D02*
X8574143Y-16692143D01*
X8612238Y-16692143D01*
X8631286Y-16701667D01*
X8640810Y-16711190D01*
X8650333Y-16730238D01*
X8650333Y-16787381D01*
X8640810Y-16806429D01*
X8631286Y-16815952D01*
X8612238Y-16825476D01*
X8574143Y-16825476D01*
X8555095Y-16815952D01*
X8736048Y-16806429D02*
X8745571Y-16815952D01*
X8736048Y-16825476D01*
X8726524Y-16815952D01*
X8736048Y-16806429D01*
X8736048Y-16825476D01*
X8736048Y-16701667D02*
X8745571Y-16711190D01*
X8736048Y-16720714D01*
X8726524Y-16711190D01*
X8736048Y-16701667D01*
X8736048Y-16720714D01*
D12*
X7067000Y-17135000D02*
X7107000Y-17175000D01*
X7107000Y-17135000D02*
X7067000Y-17175000D01*
D11*
X7402714Y-17045476D02*
X7421762Y-17045476D01*
X7440809Y-17055000D01*
X7450333Y-17064524D01*
X7459857Y-17083571D01*
X7469381Y-17121667D01*
X7469381Y-17169286D01*
X7459857Y-17207381D01*
X7450333Y-17226429D01*
X7440809Y-17235952D01*
X7421762Y-17245476D01*
X7402714Y-17245476D01*
X7383667Y-17235952D01*
X7374143Y-17226429D01*
X7364619Y-17207381D01*
X7355095Y-17169286D01*
X7355095Y-17121667D01*
X7364619Y-17083571D01*
X7374143Y-17064524D01*
X7383667Y-17055000D01*
X7402714Y-17045476D01*
X7555095Y-17226429D02*
X7564619Y-17235952D01*
X7555095Y-17245476D01*
X7545571Y-17235952D01*
X7555095Y-17226429D01*
X7555095Y-17245476D01*
X7736048Y-17112143D02*
X7736048Y-17245476D01*
X7688428Y-17035952D02*
X7640809Y-17178810D01*
X7764619Y-17178810D01*
X7878905Y-17045476D02*
X7897952Y-17045476D01*
X7917000Y-17055000D01*
X7926524Y-17064524D01*
X7936048Y-17083571D01*
X7945571Y-17121667D01*
X7945571Y-17169286D01*
X7936048Y-17207381D01*
X7926524Y-17226429D01*
X7917000Y-17235952D01*
X7897952Y-17245476D01*
X7878905Y-17245476D01*
X7859857Y-17235952D01*
X7850333Y-17226429D01*
X7840809Y-17207381D01*
X7831286Y-17169286D01*
X7831286Y-17121667D01*
X7840809Y-17083571D01*
X7850333Y-17064524D01*
X7859857Y-17055000D01*
X7878905Y-17045476D01*
X8069381Y-17045476D02*
X8088428Y-17045476D01*
X8107476Y-17055000D01*
X8117000Y-17064524D01*
X8126524Y-17083571D01*
X8136048Y-17121667D01*
X8136048Y-17169286D01*
X8126524Y-17207381D01*
X8117000Y-17226429D01*
X8107476Y-17235952D01*
X8088428Y-17245476D01*
X8069381Y-17245476D01*
X8050333Y-17235952D01*
X8040809Y-17226429D01*
X8031286Y-17207381D01*
X8021762Y-17169286D01*
X8021762Y-17121667D01*
X8031286Y-17083571D01*
X8040809Y-17064524D01*
X8050333Y-17055000D01*
X8069381Y-17045476D01*
X8221762Y-17245476D02*
X8221762Y-17112143D01*
X8221762Y-17131190D02*
X8231286Y-17121667D01*
X8250333Y-17112143D01*
X8278905Y-17112143D01*
X8297952Y-17121667D01*
X8307476Y-17140714D01*
X8307476Y-17245476D01*
X8307476Y-17140714D02*
X8317000Y-17121667D01*
X8336048Y-17112143D01*
X8364619Y-17112143D01*
X8383667Y-17121667D01*
X8393190Y-17140714D01*
X8393190Y-17245476D01*
X8488429Y-17245476D02*
X8488429Y-17112143D01*
X8488429Y-17131190D02*
X8497952Y-17121667D01*
X8517000Y-17112143D01*
X8545571Y-17112143D01*
X8564619Y-17121667D01*
X8574143Y-17140714D01*
X8574143Y-17245476D01*
X8574143Y-17140714D02*
X8583667Y-17121667D01*
X8602714Y-17112143D01*
X8631286Y-17112143D01*
X8650333Y-17121667D01*
X8659857Y-17140714D01*
X8659857Y-17245476D01*
X9050333Y-17035952D02*
X8878905Y-17293095D01*
X9307476Y-17045476D02*
X9326524Y-17045476D01*
X9345571Y-17055000D01*
X9355095Y-17064524D01*
X9364619Y-17083571D01*
X9374143Y-17121667D01*
X9374143Y-17169286D01*
X9364619Y-17207381D01*
X9355095Y-17226429D01*
X9345571Y-17235952D01*
X9326524Y-17245476D01*
X9307476Y-17245476D01*
X9288429Y-17235952D01*
X9278905Y-17226429D01*
X9269381Y-17207381D01*
X9259857Y-17169286D01*
X9259857Y-17121667D01*
X9269381Y-17083571D01*
X9278905Y-17064524D01*
X9288429Y-17055000D01*
X9307476Y-17045476D01*
X9459857Y-17226429D02*
X9469381Y-17235952D01*
X9459857Y-17245476D01*
X9450333Y-17235952D01*
X9459857Y-17226429D01*
X9459857Y-17245476D01*
X9593190Y-17045476D02*
X9612238Y-17045476D01*
X9631286Y-17055000D01*
X9640810Y-17064524D01*
X9650333Y-17083571D01*
X9659857Y-17121667D01*
X9659857Y-17169286D01*
X9650333Y-17207381D01*
X9640810Y-17226429D01*
X9631286Y-17235952D01*
X9612238Y-17245476D01*
X9593190Y-17245476D01*
X9574143Y-17235952D01*
X9564619Y-17226429D01*
X9555095Y-17207381D01*
X9545571Y-17169286D01*
X9545571Y-17121667D01*
X9555095Y-17083571D01*
X9564619Y-17064524D01*
X9574143Y-17055000D01*
X9593190Y-17045476D01*
X9850333Y-17245476D02*
X9736048Y-17245476D01*
X9793190Y-17245476D02*
X9793190Y-17045476D01*
X9774143Y-17074048D01*
X9755095Y-17093095D01*
X9736048Y-17102619D01*
X10031286Y-17045476D02*
X9936048Y-17045476D01*
X9926524Y-17140714D01*
X9936048Y-17131190D01*
X9955095Y-17121667D01*
X10002714Y-17121667D01*
X10021762Y-17131190D01*
X10031286Y-17140714D01*
X10040810Y-17159762D01*
X10040810Y-17207381D01*
X10031286Y-17226429D01*
X10021762Y-17235952D01*
X10002714Y-17245476D01*
X9955095Y-17245476D01*
X9936048Y-17235952D01*
X9926524Y-17226429D01*
X10107476Y-17045476D02*
X10240810Y-17045476D01*
X10155095Y-17245476D01*
X10307476Y-17045476D02*
X10307476Y-17083571D01*
X10383667Y-17045476D02*
X10383667Y-17083571D01*
X10678905Y-17321667D02*
X10669381Y-17312143D01*
X10650333Y-17283571D01*
X10640810Y-17264524D01*
X10631286Y-17235952D01*
X10621762Y-17188333D01*
X10621762Y-17150238D01*
X10631286Y-17102619D01*
X10640810Y-17074048D01*
X10650333Y-17055000D01*
X10669381Y-17026429D01*
X10678905Y-17016905D01*
X10840810Y-17112143D02*
X10840810Y-17245476D01*
X10793190Y-17035952D02*
X10745571Y-17178810D01*
X10869381Y-17178810D01*
X11097952Y-17245476D02*
X11097952Y-17045476D01*
X11183667Y-17245476D02*
X11183667Y-17140714D01*
X11174143Y-17121667D01*
X11155095Y-17112143D01*
X11126524Y-17112143D01*
X11107476Y-17121667D01*
X11097952Y-17131190D01*
X11307476Y-17245476D02*
X11288428Y-17235952D01*
X11278905Y-17226429D01*
X11269381Y-17207381D01*
X11269381Y-17150238D01*
X11278905Y-17131190D01*
X11288428Y-17121667D01*
X11307476Y-17112143D01*
X11336048Y-17112143D01*
X11355095Y-17121667D01*
X11364619Y-17131190D01*
X11374143Y-17150238D01*
X11374143Y-17207381D01*
X11364619Y-17226429D01*
X11355095Y-17235952D01*
X11336048Y-17245476D01*
X11307476Y-17245476D01*
X11488428Y-17245476D02*
X11469381Y-17235952D01*
X11459857Y-17216905D01*
X11459857Y-17045476D01*
X11640809Y-17235952D02*
X11621762Y-17245476D01*
X11583667Y-17245476D01*
X11564619Y-17235952D01*
X11555095Y-17216905D01*
X11555095Y-17140714D01*
X11564619Y-17121667D01*
X11583667Y-17112143D01*
X11621762Y-17112143D01*
X11640809Y-17121667D01*
X11650333Y-17140714D01*
X11650333Y-17159762D01*
X11555095Y-17178810D01*
X11726524Y-17235952D02*
X11745571Y-17245476D01*
X11783667Y-17245476D01*
X11802714Y-17235952D01*
X11812238Y-17216905D01*
X11812238Y-17207381D01*
X11802714Y-17188333D01*
X11783667Y-17178810D01*
X11755095Y-17178810D01*
X11736048Y-17169286D01*
X11726524Y-17150238D01*
X11726524Y-17140714D01*
X11736048Y-17121667D01*
X11755095Y-17112143D01*
X11783667Y-17112143D01*
X11802714Y-17121667D01*
X11878905Y-17321667D02*
X11888428Y-17312143D01*
X11907476Y-17283571D01*
X11917000Y-17264524D01*
X11926524Y-17235952D01*
X11936048Y-17188333D01*
X11936048Y-17150238D01*
X11926524Y-17102619D01*
X11917000Y-17074048D01*
X11907476Y-17055000D01*
X11888428Y-17026429D01*
X11878905Y-17016905D01*
D13*
X7107000Y-17419000D02*
G75*
G03*
X7107000Y-17419000I-40000J0D01*
G01*
D11*
X7402714Y-17309476D02*
X7421762Y-17309476D01*
X7440809Y-17319000D01*
X7450333Y-17328524D01*
X7459857Y-17347571D01*
X7469381Y-17385667D01*
X7469381Y-17433286D01*
X7459857Y-17471381D01*
X7450333Y-17490429D01*
X7440809Y-17499952D01*
X7421762Y-17509476D01*
X7402714Y-17509476D01*
X7383667Y-17499952D01*
X7374143Y-17490429D01*
X7364619Y-17471381D01*
X7355095Y-17433286D01*
X7355095Y-17385667D01*
X7364619Y-17347571D01*
X7374143Y-17328524D01*
X7383667Y-17319000D01*
X7402714Y-17309476D01*
X7555095Y-17490429D02*
X7564619Y-17499952D01*
X7555095Y-17509476D01*
X7545571Y-17499952D01*
X7555095Y-17490429D01*
X7555095Y-17509476D01*
X7678905Y-17395190D02*
X7659857Y-17385667D01*
X7650333Y-17376143D01*
X7640809Y-17357095D01*
X7640809Y-17347571D01*
X7650333Y-17328524D01*
X7659857Y-17319000D01*
X7678905Y-17309476D01*
X7717000Y-17309476D01*
X7736048Y-17319000D01*
X7745571Y-17328524D01*
X7755095Y-17347571D01*
X7755095Y-17357095D01*
X7745571Y-17376143D01*
X7736048Y-17385667D01*
X7717000Y-17395190D01*
X7678905Y-17395190D01*
X7659857Y-17404714D01*
X7650333Y-17414238D01*
X7640809Y-17433286D01*
X7640809Y-17471381D01*
X7650333Y-17490429D01*
X7659857Y-17499952D01*
X7678905Y-17509476D01*
X7717000Y-17509476D01*
X7736048Y-17499952D01*
X7745571Y-17490429D01*
X7755095Y-17471381D01*
X7755095Y-17433286D01*
X7745571Y-17414238D01*
X7736048Y-17404714D01*
X7717000Y-17395190D01*
X7878905Y-17309476D02*
X7897952Y-17309476D01*
X7917000Y-17319000D01*
X7926524Y-17328524D01*
X7936048Y-17347571D01*
X7945571Y-17385667D01*
X7945571Y-17433286D01*
X7936048Y-17471381D01*
X7926524Y-17490429D01*
X7917000Y-17499952D01*
X7897952Y-17509476D01*
X7878905Y-17509476D01*
X7859857Y-17499952D01*
X7850333Y-17490429D01*
X7840809Y-17471381D01*
X7831286Y-17433286D01*
X7831286Y-17385667D01*
X7840809Y-17347571D01*
X7850333Y-17328524D01*
X7859857Y-17319000D01*
X7878905Y-17309476D01*
X8069381Y-17309476D02*
X8088428Y-17309476D01*
X8107476Y-17319000D01*
X8117000Y-17328524D01*
X8126524Y-17347571D01*
X8136048Y-17385667D01*
X8136048Y-17433286D01*
X8126524Y-17471381D01*
X8117000Y-17490429D01*
X8107476Y-17499952D01*
X8088428Y-17509476D01*
X8069381Y-17509476D01*
X8050333Y-17499952D01*
X8040809Y-17490429D01*
X8031286Y-17471381D01*
X8021762Y-17433286D01*
X8021762Y-17385667D01*
X8031286Y-17347571D01*
X8040809Y-17328524D01*
X8050333Y-17319000D01*
X8069381Y-17309476D01*
X8221762Y-17509476D02*
X8221762Y-17376143D01*
X8221762Y-17395190D02*
X8231286Y-17385667D01*
X8250333Y-17376143D01*
X8278905Y-17376143D01*
X8297952Y-17385667D01*
X8307476Y-17404714D01*
X8307476Y-17509476D01*
X8307476Y-17404714D02*
X8317000Y-17385667D01*
X8336048Y-17376143D01*
X8364619Y-17376143D01*
X8383667Y-17385667D01*
X8393190Y-17404714D01*
X8393190Y-17509476D01*
X8488429Y-17509476D02*
X8488429Y-17376143D01*
X8488429Y-17395190D02*
X8497952Y-17385667D01*
X8517000Y-17376143D01*
X8545571Y-17376143D01*
X8564619Y-17385667D01*
X8574143Y-17404714D01*
X8574143Y-17509476D01*
X8574143Y-17404714D02*
X8583667Y-17385667D01*
X8602714Y-17376143D01*
X8631286Y-17376143D01*
X8650333Y-17385667D01*
X8659857Y-17404714D01*
X8659857Y-17509476D01*
X9050333Y-17299952D02*
X8878905Y-17557095D01*
X9307476Y-17309476D02*
X9326524Y-17309476D01*
X9345571Y-17319000D01*
X9355095Y-17328524D01*
X9364619Y-17347571D01*
X9374143Y-17385667D01*
X9374143Y-17433286D01*
X9364619Y-17471381D01*
X9355095Y-17490429D01*
X9345571Y-17499952D01*
X9326524Y-17509476D01*
X9307476Y-17509476D01*
X9288429Y-17499952D01*
X9278905Y-17490429D01*
X9269381Y-17471381D01*
X9259857Y-17433286D01*
X9259857Y-17385667D01*
X9269381Y-17347571D01*
X9278905Y-17328524D01*
X9288429Y-17319000D01*
X9307476Y-17309476D01*
X9459857Y-17490429D02*
X9469381Y-17499952D01*
X9459857Y-17509476D01*
X9450333Y-17499952D01*
X9459857Y-17490429D01*
X9459857Y-17509476D01*
X9593190Y-17309476D02*
X9612238Y-17309476D01*
X9631286Y-17319000D01*
X9640810Y-17328524D01*
X9650333Y-17347571D01*
X9659857Y-17385667D01*
X9659857Y-17433286D01*
X9650333Y-17471381D01*
X9640810Y-17490429D01*
X9631286Y-17499952D01*
X9612238Y-17509476D01*
X9593190Y-17509476D01*
X9574143Y-17499952D01*
X9564619Y-17490429D01*
X9555095Y-17471381D01*
X9545571Y-17433286D01*
X9545571Y-17385667D01*
X9555095Y-17347571D01*
X9564619Y-17328524D01*
X9574143Y-17319000D01*
X9593190Y-17309476D01*
X9726524Y-17309476D02*
X9850333Y-17309476D01*
X9783667Y-17385667D01*
X9812238Y-17385667D01*
X9831286Y-17395190D01*
X9840810Y-17404714D01*
X9850333Y-17423762D01*
X9850333Y-17471381D01*
X9840810Y-17490429D01*
X9831286Y-17499952D01*
X9812238Y-17509476D01*
X9755095Y-17509476D01*
X9736048Y-17499952D01*
X9726524Y-17490429D01*
X10040810Y-17509476D02*
X9926524Y-17509476D01*
X9983667Y-17509476D02*
X9983667Y-17309476D01*
X9964619Y-17338048D01*
X9945571Y-17357095D01*
X9926524Y-17366619D01*
X10221762Y-17309476D02*
X10126524Y-17309476D01*
X10117000Y-17404714D01*
X10126524Y-17395190D01*
X10145571Y-17385667D01*
X10193190Y-17385667D01*
X10212238Y-17395190D01*
X10221762Y-17404714D01*
X10231286Y-17423762D01*
X10231286Y-17471381D01*
X10221762Y-17490429D01*
X10212238Y-17499952D01*
X10193190Y-17509476D01*
X10145571Y-17509476D01*
X10126524Y-17499952D01*
X10117000Y-17490429D01*
X10307476Y-17309476D02*
X10307476Y-17347571D01*
X10383667Y-17309476D02*
X10383667Y-17347571D01*
X10678905Y-17585667D02*
X10669381Y-17576143D01*
X10650333Y-17547571D01*
X10640810Y-17528524D01*
X10631286Y-17499952D01*
X10621762Y-17452333D01*
X10621762Y-17414238D01*
X10631286Y-17366619D01*
X10640810Y-17338048D01*
X10650333Y-17319000D01*
X10669381Y-17290429D01*
X10678905Y-17280905D01*
X10745571Y-17328524D02*
X10755095Y-17319000D01*
X10774143Y-17309476D01*
X10821762Y-17309476D01*
X10840810Y-17319000D01*
X10850333Y-17328524D01*
X10859857Y-17347571D01*
X10859857Y-17366619D01*
X10850333Y-17395190D01*
X10736048Y-17509476D01*
X10859857Y-17509476D01*
X11031286Y-17376143D02*
X11031286Y-17509476D01*
X10983667Y-17299952D02*
X10936048Y-17442810D01*
X11059857Y-17442810D01*
X11288428Y-17509476D02*
X11288428Y-17309476D01*
X11374143Y-17509476D02*
X11374143Y-17404714D01*
X11364619Y-17385667D01*
X11345571Y-17376143D01*
X11317000Y-17376143D01*
X11297952Y-17385667D01*
X11288428Y-17395190D01*
X11497952Y-17509476D02*
X11478905Y-17499952D01*
X11469381Y-17490429D01*
X11459857Y-17471381D01*
X11459857Y-17414238D01*
X11469381Y-17395190D01*
X11478905Y-17385667D01*
X11497952Y-17376143D01*
X11526524Y-17376143D01*
X11545571Y-17385667D01*
X11555095Y-17395190D01*
X11564619Y-17414238D01*
X11564619Y-17471381D01*
X11555095Y-17490429D01*
X11545571Y-17499952D01*
X11526524Y-17509476D01*
X11497952Y-17509476D01*
X11678905Y-17509476D02*
X11659857Y-17499952D01*
X11650333Y-17480905D01*
X11650333Y-17309476D01*
X11831286Y-17499952D02*
X11812238Y-17509476D01*
X11774143Y-17509476D01*
X11755095Y-17499952D01*
X11745571Y-17480905D01*
X11745571Y-17404714D01*
X11755095Y-17385667D01*
X11774143Y-17376143D01*
X11812238Y-17376143D01*
X11831286Y-17385667D01*
X11840809Y-17404714D01*
X11840809Y-17423762D01*
X11745571Y-17442810D01*
X11917000Y-17499952D02*
X11936048Y-17509476D01*
X11974143Y-17509476D01*
X11993190Y-17499952D01*
X12002714Y-17480905D01*
X12002714Y-17471381D01*
X11993190Y-17452333D01*
X11974143Y-17442810D01*
X11945571Y-17442810D01*
X11926524Y-17433286D01*
X11917000Y-17414238D01*
X11917000Y-17404714D01*
X11926524Y-17385667D01*
X11945571Y-17376143D01*
X11974143Y-17376143D01*
X11993190Y-17385667D01*
X12069381Y-17585667D02*
X12078905Y-17576143D01*
X12097952Y-17547571D01*
X12107476Y-17528524D01*
X12117000Y-17499952D01*
X12126524Y-17452333D01*
X12126524Y-17414238D01*
X12117000Y-17366619D01*
X12107476Y-17338048D01*
X12097952Y-17319000D01*
X12078905Y-17290429D01*
X12069381Y-17280905D01*
D14*
X7062000Y-17638000D02*
X7062000Y-17728000D01*
X7017000Y-17683000D02*
X7107000Y-17683000D01*
D11*
X7402714Y-17573476D02*
X7421762Y-17573476D01*
X7440809Y-17583000D01*
X7450333Y-17592524D01*
X7459857Y-17611571D01*
X7469381Y-17649667D01*
X7469381Y-17697286D01*
X7459857Y-17735381D01*
X7450333Y-17754429D01*
X7440809Y-17763952D01*
X7421762Y-17773476D01*
X7402714Y-17773476D01*
X7383667Y-17763952D01*
X7374143Y-17754429D01*
X7364619Y-17735381D01*
X7355095Y-17697286D01*
X7355095Y-17649667D01*
X7364619Y-17611571D01*
X7374143Y-17592524D01*
X7383667Y-17583000D01*
X7402714Y-17573476D01*
X7555095Y-17754429D02*
X7564619Y-17763952D01*
X7555095Y-17773476D01*
X7545571Y-17763952D01*
X7555095Y-17754429D01*
X7555095Y-17773476D01*
X7659857Y-17773476D02*
X7697952Y-17773476D01*
X7717000Y-17763952D01*
X7726524Y-17754429D01*
X7745571Y-17725857D01*
X7755095Y-17687762D01*
X7755095Y-17611571D01*
X7745571Y-17592524D01*
X7736048Y-17583000D01*
X7717000Y-17573476D01*
X7678905Y-17573476D01*
X7659857Y-17583000D01*
X7650333Y-17592524D01*
X7640809Y-17611571D01*
X7640809Y-17659190D01*
X7650333Y-17678238D01*
X7659857Y-17687762D01*
X7678905Y-17697286D01*
X7717000Y-17697286D01*
X7736048Y-17687762D01*
X7745571Y-17678238D01*
X7755095Y-17659190D01*
X7878905Y-17573476D02*
X7897952Y-17573476D01*
X7917000Y-17583000D01*
X7926524Y-17592524D01*
X7936048Y-17611571D01*
X7945571Y-17649667D01*
X7945571Y-17697286D01*
X7936048Y-17735381D01*
X7926524Y-17754429D01*
X7917000Y-17763952D01*
X7897952Y-17773476D01*
X7878905Y-17773476D01*
X7859857Y-17763952D01*
X7850333Y-17754429D01*
X7840809Y-17735381D01*
X7831286Y-17697286D01*
X7831286Y-17649667D01*
X7840809Y-17611571D01*
X7850333Y-17592524D01*
X7859857Y-17583000D01*
X7878905Y-17573476D01*
X8069381Y-17573476D02*
X8088428Y-17573476D01*
X8107476Y-17583000D01*
X8117000Y-17592524D01*
X8126524Y-17611571D01*
X8136048Y-17649667D01*
X8136048Y-17697286D01*
X8126524Y-17735381D01*
X8117000Y-17754429D01*
X8107476Y-17763952D01*
X8088428Y-17773476D01*
X8069381Y-17773476D01*
X8050333Y-17763952D01*
X8040809Y-17754429D01*
X8031286Y-17735381D01*
X8021762Y-17697286D01*
X8021762Y-17649667D01*
X8031286Y-17611571D01*
X8040809Y-17592524D01*
X8050333Y-17583000D01*
X8069381Y-17573476D01*
X8221762Y-17773476D02*
X8221762Y-17640143D01*
X8221762Y-17659190D02*
X8231286Y-17649667D01*
X8250333Y-17640143D01*
X8278905Y-17640143D01*
X8297952Y-17649667D01*
X8307476Y-17668714D01*
X8307476Y-17773476D01*
X8307476Y-17668714D02*
X8317000Y-17649667D01*
X8336048Y-17640143D01*
X8364619Y-17640143D01*
X8383667Y-17649667D01*
X8393190Y-17668714D01*
X8393190Y-17773476D01*
X8488429Y-17773476D02*
X8488429Y-17640143D01*
X8488429Y-17659190D02*
X8497952Y-17649667D01*
X8517000Y-17640143D01*
X8545571Y-17640143D01*
X8564619Y-17649667D01*
X8574143Y-17668714D01*
X8574143Y-17773476D01*
X8574143Y-17668714D02*
X8583667Y-17649667D01*
X8602714Y-17640143D01*
X8631286Y-17640143D01*
X8650333Y-17649667D01*
X8659857Y-17668714D01*
X8659857Y-17773476D01*
X9050333Y-17563952D02*
X8878905Y-17821095D01*
X9307476Y-17573476D02*
X9326524Y-17573476D01*
X9345571Y-17583000D01*
X9355095Y-17592524D01*
X9364619Y-17611571D01*
X9374143Y-17649667D01*
X9374143Y-17697286D01*
X9364619Y-17735381D01*
X9355095Y-17754429D01*
X9345571Y-17763952D01*
X9326524Y-17773476D01*
X9307476Y-17773476D01*
X9288429Y-17763952D01*
X9278905Y-17754429D01*
X9269381Y-17735381D01*
X9259857Y-17697286D01*
X9259857Y-17649667D01*
X9269381Y-17611571D01*
X9278905Y-17592524D01*
X9288429Y-17583000D01*
X9307476Y-17573476D01*
X9459857Y-17754429D02*
X9469381Y-17763952D01*
X9459857Y-17773476D01*
X9450333Y-17763952D01*
X9459857Y-17754429D01*
X9459857Y-17773476D01*
X9593190Y-17573476D02*
X9612238Y-17573476D01*
X9631286Y-17583000D01*
X9640810Y-17592524D01*
X9650333Y-17611571D01*
X9659857Y-17649667D01*
X9659857Y-17697286D01*
X9650333Y-17735381D01*
X9640810Y-17754429D01*
X9631286Y-17763952D01*
X9612238Y-17773476D01*
X9593190Y-17773476D01*
X9574143Y-17763952D01*
X9564619Y-17754429D01*
X9555095Y-17735381D01*
X9545571Y-17697286D01*
X9545571Y-17649667D01*
X9555095Y-17611571D01*
X9564619Y-17592524D01*
X9574143Y-17583000D01*
X9593190Y-17573476D01*
X9726524Y-17573476D02*
X9850333Y-17573476D01*
X9783667Y-17649667D01*
X9812238Y-17649667D01*
X9831286Y-17659190D01*
X9840810Y-17668714D01*
X9850333Y-17687762D01*
X9850333Y-17735381D01*
X9840810Y-17754429D01*
X9831286Y-17763952D01*
X9812238Y-17773476D01*
X9755095Y-17773476D01*
X9736048Y-17763952D01*
X9726524Y-17754429D01*
X10031286Y-17573476D02*
X9936048Y-17573476D01*
X9926524Y-17668714D01*
X9936048Y-17659190D01*
X9955095Y-17649667D01*
X10002714Y-17649667D01*
X10021762Y-17659190D01*
X10031286Y-17668714D01*
X10040810Y-17687762D01*
X10040810Y-17735381D01*
X10031286Y-17754429D01*
X10021762Y-17763952D01*
X10002714Y-17773476D01*
X9955095Y-17773476D01*
X9936048Y-17763952D01*
X9926524Y-17754429D01*
X10212238Y-17640143D02*
X10212238Y-17773476D01*
X10164619Y-17563952D02*
X10117000Y-17706810D01*
X10240810Y-17706810D01*
X10307476Y-17573476D02*
X10307476Y-17611571D01*
X10383667Y-17573476D02*
X10383667Y-17611571D01*
X10678905Y-17849667D02*
X10669381Y-17840143D01*
X10650333Y-17811571D01*
X10640810Y-17792524D01*
X10631286Y-17763952D01*
X10621762Y-17716333D01*
X10621762Y-17678238D01*
X10631286Y-17630619D01*
X10640810Y-17602048D01*
X10650333Y-17583000D01*
X10669381Y-17554429D01*
X10678905Y-17544905D01*
X10859857Y-17773476D02*
X10745571Y-17773476D01*
X10802714Y-17773476D02*
X10802714Y-17573476D01*
X10783667Y-17602048D01*
X10764619Y-17621095D01*
X10745571Y-17630619D01*
X11031286Y-17573476D02*
X10993190Y-17573476D01*
X10974143Y-17583000D01*
X10964619Y-17592524D01*
X10945571Y-17621095D01*
X10936048Y-17659190D01*
X10936048Y-17735381D01*
X10945571Y-17754429D01*
X10955095Y-17763952D01*
X10974143Y-17773476D01*
X11012238Y-17773476D01*
X11031286Y-17763952D01*
X11040810Y-17754429D01*
X11050333Y-17735381D01*
X11050333Y-17687762D01*
X11040810Y-17668714D01*
X11031286Y-17659190D01*
X11012238Y-17649667D01*
X10974143Y-17649667D01*
X10955095Y-17659190D01*
X10945571Y-17668714D01*
X10936048Y-17687762D01*
X11288428Y-17773476D02*
X11288428Y-17573476D01*
X11374143Y-17773476D02*
X11374143Y-17668714D01*
X11364619Y-17649667D01*
X11345571Y-17640143D01*
X11317000Y-17640143D01*
X11297952Y-17649667D01*
X11288428Y-17659190D01*
X11497952Y-17773476D02*
X11478905Y-17763952D01*
X11469381Y-17754429D01*
X11459857Y-17735381D01*
X11459857Y-17678238D01*
X11469381Y-17659190D01*
X11478905Y-17649667D01*
X11497952Y-17640143D01*
X11526524Y-17640143D01*
X11545571Y-17649667D01*
X11555095Y-17659190D01*
X11564619Y-17678238D01*
X11564619Y-17735381D01*
X11555095Y-17754429D01*
X11545571Y-17763952D01*
X11526524Y-17773476D01*
X11497952Y-17773476D01*
X11678905Y-17773476D02*
X11659857Y-17763952D01*
X11650333Y-17744905D01*
X11650333Y-17573476D01*
X11831286Y-17763952D02*
X11812238Y-17773476D01*
X11774143Y-17773476D01*
X11755095Y-17763952D01*
X11745571Y-17744905D01*
X11745571Y-17668714D01*
X11755095Y-17649667D01*
X11774143Y-17640143D01*
X11812238Y-17640143D01*
X11831286Y-17649667D01*
X11840809Y-17668714D01*
X11840809Y-17687762D01*
X11745571Y-17706810D01*
X11917000Y-17763952D02*
X11936048Y-17773476D01*
X11974143Y-17773476D01*
X11993190Y-17763952D01*
X12002714Y-17744905D01*
X12002714Y-17735381D01*
X11993190Y-17716333D01*
X11974143Y-17706810D01*
X11945571Y-17706810D01*
X11926524Y-17697286D01*
X11917000Y-17678238D01*
X11917000Y-17668714D01*
X11926524Y-17649667D01*
X11945571Y-17640143D01*
X11974143Y-17640143D01*
X11993190Y-17649667D01*
X12069381Y-17849667D02*
X12078905Y-17840143D01*
X12097952Y-17811571D01*
X12107476Y-17792524D01*
X12117000Y-17763952D01*
X12126524Y-17716333D01*
X12126524Y-17678238D01*
X12117000Y-17630619D01*
X12107476Y-17602048D01*
X12097952Y-17583000D01*
X12078905Y-17554429D01*
X12069381Y-17544905D01*
D15*
X7092356Y-17982356D02*
X7092356Y-17911644D01*
X7021644Y-17911644D01*
X7021644Y-17982356D01*
X7092356Y-17982356D01*
D11*
X7469381Y-18037476D02*
X7355095Y-18037476D01*
X7412238Y-18037476D02*
X7412238Y-17837476D01*
X7393190Y-17866048D01*
X7374143Y-17885095D01*
X7355095Y-17894619D01*
X7555095Y-18018429D02*
X7564619Y-18027952D01*
X7555095Y-18037476D01*
X7545571Y-18027952D01*
X7555095Y-18018429D01*
X7555095Y-18037476D01*
X7688428Y-17837476D02*
X7707476Y-17837476D01*
X7726524Y-17847000D01*
X7736048Y-17856524D01*
X7745571Y-17875571D01*
X7755095Y-17913667D01*
X7755095Y-17961286D01*
X7745571Y-17999381D01*
X7736048Y-18018429D01*
X7726524Y-18027952D01*
X7707476Y-18037476D01*
X7688428Y-18037476D01*
X7669381Y-18027952D01*
X7659857Y-18018429D01*
X7650333Y-17999381D01*
X7640809Y-17961286D01*
X7640809Y-17913667D01*
X7650333Y-17875571D01*
X7659857Y-17856524D01*
X7669381Y-17847000D01*
X7688428Y-17837476D01*
X7878905Y-17837476D02*
X7897952Y-17837476D01*
X7917000Y-17847000D01*
X7926524Y-17856524D01*
X7936048Y-17875571D01*
X7945571Y-17913667D01*
X7945571Y-17961286D01*
X7936048Y-17999381D01*
X7926524Y-18018429D01*
X7917000Y-18027952D01*
X7897952Y-18037476D01*
X7878905Y-18037476D01*
X7859857Y-18027952D01*
X7850333Y-18018429D01*
X7840809Y-17999381D01*
X7831286Y-17961286D01*
X7831286Y-17913667D01*
X7840809Y-17875571D01*
X7850333Y-17856524D01*
X7859857Y-17847000D01*
X7878905Y-17837476D01*
X8069381Y-17837476D02*
X8088428Y-17837476D01*
X8107476Y-17847000D01*
X8117000Y-17856524D01*
X8126524Y-17875571D01*
X8136048Y-17913667D01*
X8136048Y-17961286D01*
X8126524Y-17999381D01*
X8117000Y-18018429D01*
X8107476Y-18027952D01*
X8088428Y-18037476D01*
X8069381Y-18037476D01*
X8050333Y-18027952D01*
X8040809Y-18018429D01*
X8031286Y-17999381D01*
X8021762Y-17961286D01*
X8021762Y-17913667D01*
X8031286Y-17875571D01*
X8040809Y-17856524D01*
X8050333Y-17847000D01*
X8069381Y-17837476D01*
X8221762Y-18037476D02*
X8221762Y-17904143D01*
X8221762Y-17923190D02*
X8231286Y-17913667D01*
X8250333Y-17904143D01*
X8278905Y-17904143D01*
X8297952Y-17913667D01*
X8307476Y-17932714D01*
X8307476Y-18037476D01*
X8307476Y-17932714D02*
X8317000Y-17913667D01*
X8336048Y-17904143D01*
X8364619Y-17904143D01*
X8383667Y-17913667D01*
X8393190Y-17932714D01*
X8393190Y-18037476D01*
X8488429Y-18037476D02*
X8488429Y-17904143D01*
X8488429Y-17923190D02*
X8497952Y-17913667D01*
X8517000Y-17904143D01*
X8545571Y-17904143D01*
X8564619Y-17913667D01*
X8574143Y-17932714D01*
X8574143Y-18037476D01*
X8574143Y-17932714D02*
X8583667Y-17913667D01*
X8602714Y-17904143D01*
X8631286Y-17904143D01*
X8650333Y-17913667D01*
X8659857Y-17932714D01*
X8659857Y-18037476D01*
X9050333Y-17827952D02*
X8878905Y-18085095D01*
X9307476Y-17837476D02*
X9326524Y-17837476D01*
X9345571Y-17847000D01*
X9355095Y-17856524D01*
X9364619Y-17875571D01*
X9374143Y-17913667D01*
X9374143Y-17961286D01*
X9364619Y-17999381D01*
X9355095Y-18018429D01*
X9345571Y-18027952D01*
X9326524Y-18037476D01*
X9307476Y-18037476D01*
X9288429Y-18027952D01*
X9278905Y-18018429D01*
X9269381Y-17999381D01*
X9259857Y-17961286D01*
X9259857Y-17913667D01*
X9269381Y-17875571D01*
X9278905Y-17856524D01*
X9288429Y-17847000D01*
X9307476Y-17837476D01*
X9459857Y-18018429D02*
X9469381Y-18027952D01*
X9459857Y-18037476D01*
X9450333Y-18027952D01*
X9459857Y-18018429D01*
X9459857Y-18037476D01*
X9593190Y-17837476D02*
X9612238Y-17837476D01*
X9631286Y-17847000D01*
X9640810Y-17856524D01*
X9650333Y-17875571D01*
X9659857Y-17913667D01*
X9659857Y-17961286D01*
X9650333Y-17999381D01*
X9640810Y-18018429D01*
X9631286Y-18027952D01*
X9612238Y-18037476D01*
X9593190Y-18037476D01*
X9574143Y-18027952D01*
X9564619Y-18018429D01*
X9555095Y-17999381D01*
X9545571Y-17961286D01*
X9545571Y-17913667D01*
X9555095Y-17875571D01*
X9564619Y-17856524D01*
X9574143Y-17847000D01*
X9593190Y-17837476D01*
X9726524Y-17837476D02*
X9850333Y-17837476D01*
X9783667Y-17913667D01*
X9812238Y-17913667D01*
X9831286Y-17923190D01*
X9840810Y-17932714D01*
X9850333Y-17951762D01*
X9850333Y-17999381D01*
X9840810Y-18018429D01*
X9831286Y-18027952D01*
X9812238Y-18037476D01*
X9755095Y-18037476D01*
X9736048Y-18027952D01*
X9726524Y-18018429D01*
X9945571Y-18037476D02*
X9983667Y-18037476D01*
X10002714Y-18027952D01*
X10012238Y-18018429D01*
X10031286Y-17989857D01*
X10040810Y-17951762D01*
X10040810Y-17875571D01*
X10031286Y-17856524D01*
X10021762Y-17847000D01*
X10002714Y-17837476D01*
X9964619Y-17837476D01*
X9945571Y-17847000D01*
X9936048Y-17856524D01*
X9926524Y-17875571D01*
X9926524Y-17923190D01*
X9936048Y-17942238D01*
X9945571Y-17951762D01*
X9964619Y-17961286D01*
X10002714Y-17961286D01*
X10021762Y-17951762D01*
X10031286Y-17942238D01*
X10040810Y-17923190D01*
X10212238Y-17904143D02*
X10212238Y-18037476D01*
X10164619Y-17827952D02*
X10117000Y-17970810D01*
X10240810Y-17970810D01*
X10307476Y-17837476D02*
X10307476Y-17875571D01*
X10383667Y-17837476D02*
X10383667Y-17875571D01*
X10678905Y-18113667D02*
X10669381Y-18104143D01*
X10650333Y-18075571D01*
X10640810Y-18056524D01*
X10631286Y-18027952D01*
X10621762Y-17980333D01*
X10621762Y-17942238D01*
X10631286Y-17894619D01*
X10640810Y-17866048D01*
X10650333Y-17847000D01*
X10669381Y-17818429D01*
X10678905Y-17808905D01*
X10859857Y-18037476D02*
X10745571Y-18037476D01*
X10802714Y-18037476D02*
X10802714Y-17837476D01*
X10783667Y-17866048D01*
X10764619Y-17885095D01*
X10745571Y-17894619D01*
X11050333Y-18037476D02*
X10936048Y-18037476D01*
X10993190Y-18037476D02*
X10993190Y-17837476D01*
X10974143Y-17866048D01*
X10955095Y-17885095D01*
X10936048Y-17894619D01*
X11221762Y-17904143D02*
X11221762Y-18037476D01*
X11174143Y-17827952D02*
X11126524Y-17970810D01*
X11250333Y-17970810D01*
X11478905Y-18037476D02*
X11478905Y-17837476D01*
X11564619Y-18037476D02*
X11564619Y-17932714D01*
X11555095Y-17913667D01*
X11536048Y-17904143D01*
X11507476Y-17904143D01*
X11488428Y-17913667D01*
X11478905Y-17923190D01*
X11688428Y-18037476D02*
X11669381Y-18027952D01*
X11659857Y-18018429D01*
X11650333Y-17999381D01*
X11650333Y-17942238D01*
X11659857Y-17923190D01*
X11669381Y-17913667D01*
X11688428Y-17904143D01*
X11717000Y-17904143D01*
X11736048Y-17913667D01*
X11745571Y-17923190D01*
X11755095Y-17942238D01*
X11755095Y-17999381D01*
X11745571Y-18018429D01*
X11736048Y-18027952D01*
X11717000Y-18037476D01*
X11688428Y-18037476D01*
X11869381Y-18037476D02*
X11850333Y-18027952D01*
X11840809Y-18008905D01*
X11840809Y-17837476D01*
X12021762Y-18027952D02*
X12002714Y-18037476D01*
X11964619Y-18037476D01*
X11945571Y-18027952D01*
X11936048Y-18008905D01*
X11936048Y-17932714D01*
X11945571Y-17913667D01*
X11964619Y-17904143D01*
X12002714Y-17904143D01*
X12021762Y-17913667D01*
X12031286Y-17932714D01*
X12031286Y-17951762D01*
X11936048Y-17970810D01*
X12107476Y-18027952D02*
X12126524Y-18037476D01*
X12164619Y-18037476D01*
X12183667Y-18027952D01*
X12193190Y-18008905D01*
X12193190Y-17999381D01*
X12183667Y-17980333D01*
X12164619Y-17970810D01*
X12136048Y-17970810D01*
X12117000Y-17961286D01*
X12107476Y-17942238D01*
X12107476Y-17932714D01*
X12117000Y-17913667D01*
X12136048Y-17904143D01*
X12164619Y-17904143D01*
X12183667Y-17913667D01*
X12259857Y-18113667D02*
X12269381Y-18104143D01*
X12288428Y-18075571D01*
X12297952Y-18056524D01*
X12307476Y-18027952D01*
X12317000Y-17980333D01*
X12317000Y-17942238D01*
X12307476Y-17894619D01*
X12297952Y-17866048D01*
X12288428Y-17847000D01*
X12269381Y-17818429D01*
X12259857Y-17808905D01*
M02*
