G04 #@! TF.GenerationSoftware,KiCad,Pcbnew,(6.0.2)*
G04 #@! TF.CreationDate,2025-01-10T17:30:30+01:00*
G04 #@! TF.ProjectId,4motor,346d6f74-6f72-42e6-9b69-6361645f7063,rev?*
G04 #@! TF.SameCoordinates,Original*
G04 #@! TF.FileFunction,Soldermask,Top*
G04 #@! TF.FilePolarity,Negative*
%FSLAX46Y46*%
G04 Gerber Fmt 4.6, Leading zero omitted, Abs format (unit mm)*
G04 Created by KiCad (PCBNEW (6.0.2)) date 2025-01-10 17:30:30*
%MOMM*%
%LPD*%
G01*
G04 APERTURE LIST*
%ADD10R,1.700000X1.700000*%
%ADD11O,1.700000X1.700000*%
%ADD12C,1.600000*%
%ADD13O,1.600000X1.600000*%
%ADD14R,1.600000X1.600000*%
%ADD15R,1.800000X1.800000*%
%ADD16O,1.800000X1.800000*%
G04 APERTURE END LIST*
D10*
X157480000Y-101600000D03*
D11*
X157480000Y-104140000D03*
X157480000Y-106680000D03*
X157480000Y-109220000D03*
X157480000Y-111760000D03*
X157480000Y-114300000D03*
X157480000Y-116840000D03*
X157480000Y-119380000D03*
D12*
X152400000Y-91440000D03*
D13*
X142240000Y-91440000D03*
D14*
X137160000Y-86360000D03*
D12*
X137160000Y-83860000D03*
D15*
X121920000Y-144780000D03*
D16*
X121920000Y-147320000D03*
D12*
X153670000Y-124460000D03*
D13*
X143510000Y-124460000D03*
D10*
X154940000Y-111760000D03*
D11*
X154940000Y-114300000D03*
X154940000Y-116840000D03*
D14*
X78740000Y-86360000D03*
D12*
X78740000Y-83860000D03*
D10*
X152400000Y-76200000D03*
D11*
X152400000Y-78740000D03*
X152400000Y-81280000D03*
D10*
X144780000Y-101600000D03*
D11*
X144780000Y-104140000D03*
X144780000Y-106680000D03*
X144780000Y-109220000D03*
X144780000Y-111760000D03*
X144780000Y-114300000D03*
X144780000Y-116840000D03*
X144780000Y-119380000D03*
D15*
X142240000Y-144780000D03*
D16*
X142240000Y-147320000D03*
D15*
X152400000Y-144780000D03*
D16*
X152400000Y-147320000D03*
D15*
X127000000Y-144780000D03*
D16*
X127000000Y-147320000D03*
D10*
X96520000Y-111760000D03*
D11*
X96520000Y-114300000D03*
X96520000Y-116840000D03*
D10*
X93980000Y-76200000D03*
D11*
X93980000Y-78740000D03*
X93980000Y-81280000D03*
D10*
X152400000Y-111760000D03*
D11*
X152400000Y-114300000D03*
X152400000Y-116840000D03*
D14*
X78740000Y-121920000D03*
D12*
X78740000Y-119420000D03*
D10*
X86360000Y-101600000D03*
D11*
X86360000Y-104140000D03*
X86360000Y-106680000D03*
X86360000Y-109220000D03*
X86360000Y-111760000D03*
X86360000Y-114300000D03*
X86360000Y-116840000D03*
X86360000Y-119380000D03*
D10*
X86360000Y-66040000D03*
D11*
X86360000Y-68580000D03*
X86360000Y-71120000D03*
X86360000Y-73660000D03*
X86360000Y-76200000D03*
X86360000Y-78740000D03*
X86360000Y-81280000D03*
X86360000Y-83820000D03*
D12*
X104140000Y-115570000D03*
D13*
X104140000Y-107950000D03*
D10*
X157480000Y-66040000D03*
D11*
X157480000Y-68580000D03*
X157480000Y-71120000D03*
X157480000Y-73660000D03*
X157480000Y-76200000D03*
X157480000Y-78740000D03*
X157480000Y-81280000D03*
X157480000Y-83820000D03*
D10*
X99060000Y-66040000D03*
D11*
X99060000Y-68580000D03*
X99060000Y-71120000D03*
X99060000Y-73660000D03*
X99060000Y-76200000D03*
X99060000Y-78740000D03*
X99060000Y-81280000D03*
X99060000Y-83820000D03*
D15*
X137160000Y-144780000D03*
D16*
X137160000Y-147320000D03*
D10*
X81280000Y-71120000D03*
D11*
X81280000Y-73660000D03*
X81280000Y-76200000D03*
X81280000Y-78740000D03*
D12*
X107950000Y-119380000D03*
D13*
X107950000Y-129540000D03*
D10*
X139700000Y-106680000D03*
D11*
X139700000Y-109220000D03*
X139700000Y-111760000D03*
X139700000Y-114300000D03*
D15*
X147320000Y-144780000D03*
D16*
X147320000Y-147320000D03*
D10*
X93980000Y-111760000D03*
D11*
X93980000Y-114300000D03*
X93980000Y-116840000D03*
D10*
X154940000Y-76200000D03*
D11*
X154940000Y-78740000D03*
X154940000Y-81280000D03*
D10*
X81280000Y-106680000D03*
D11*
X81280000Y-109220000D03*
X81280000Y-111760000D03*
X81280000Y-114300000D03*
D12*
X157480000Y-96520000D03*
D13*
X147320000Y-96520000D03*
D10*
X96520000Y-76200000D03*
D11*
X96520000Y-78740000D03*
X96520000Y-81280000D03*
D12*
X152400000Y-135890000D03*
D13*
X142240000Y-135890000D03*
D12*
X109220000Y-81280000D03*
D13*
X119380000Y-81280000D03*
D14*
X137160000Y-121920000D03*
D12*
X137160000Y-119420000D03*
D15*
X132080000Y-144780000D03*
D16*
X132080000Y-147320000D03*
D10*
X99060000Y-101600000D03*
D11*
X99060000Y-104140000D03*
X99060000Y-106680000D03*
X99060000Y-109220000D03*
X99060000Y-111760000D03*
X99060000Y-114300000D03*
X99060000Y-116840000D03*
X99060000Y-119380000D03*
D10*
X144780000Y-66040000D03*
D11*
X144780000Y-68580000D03*
X144780000Y-71120000D03*
X144780000Y-73660000D03*
X144780000Y-76200000D03*
X144780000Y-78740000D03*
X144780000Y-81280000D03*
X144780000Y-83820000D03*
D12*
X99060000Y-90170000D03*
D13*
X88900000Y-90170000D03*
D15*
X157480000Y-144780000D03*
D16*
X157480000Y-147320000D03*
D10*
X139700000Y-71120000D03*
D11*
X139700000Y-73660000D03*
X139700000Y-76200000D03*
X139700000Y-78740000D03*
D10*
X134620000Y-162560000D03*
D11*
X132080000Y-162560000D03*
X129540000Y-162560000D03*
X127000000Y-162560000D03*
X124460000Y-162560000D03*
X121920000Y-162560000D03*
X119380000Y-162560000D03*
X116840000Y-162560000D03*
X114300000Y-162560000D03*
X111760000Y-162560000D03*
M02*
