M48
; DRILL file {KiCad (6.0.2)} date Fri Jan 10 17:31:41 2025
; FORMAT={-:-/ absolute / metric / decimal}
; #@! TF.CreationDate,2025-01-10T17:31:41+01:00
; #@! TF.GenerationSoftware,Kicad,Pcbnew,(6.0.2)
; #@! TF.FileFunction,Plated,1,2,PTH
FMAT,2
METRIC
; #@! TA.AperFunction,Plated,PTH,ViaDrill
T1C0.400
; #@! TA.AperFunction,Plated,PTH,ComponentDrill
T2C0.800
; #@! TA.AperFunction,Plated,PTH,ComponentDrill
T3C0.900
; #@! TA.AperFunction,Plated,PTH,ComponentDrill
T4C1.000
%
G90
G05
T1
X83.82Y-134.62
X93.98Y-96.52
X104.14Y-73.66
X116.84Y-66.04
T2
X78.74Y-83.86
X78.74Y-86.36
X78.74Y-119.42
X78.74Y-121.92
X88.9Y-90.17
X99.06Y-90.17
X104.14Y-107.95
X104.14Y-115.57
X107.95Y-119.38
X107.95Y-129.54
X109.22Y-81.28
X119.38Y-81.28
X137.16Y-83.86
X137.16Y-86.36
X137.16Y-119.42
X137.16Y-121.92
X142.24Y-91.44
X142.24Y-135.89
X143.51Y-124.46
X147.32Y-96.52
X152.4Y-91.44
X152.4Y-135.89
X153.67Y-124.46
X157.48Y-96.52
T3
X121.92Y-144.78
X121.92Y-147.32
X127.0Y-144.78
X127.0Y-147.32
X132.08Y-144.78
X132.08Y-147.32
X137.16Y-144.78
X137.16Y-147.32
X142.24Y-144.78
X142.24Y-147.32
X147.32Y-144.78
X147.32Y-147.32
X152.4Y-144.78
X152.4Y-147.32
X157.48Y-144.78
X157.48Y-147.32
T4
X81.28Y-71.12
X81.28Y-73.66
X81.28Y-76.2
X81.28Y-78.74
X81.28Y-106.68
X81.28Y-109.22
X81.28Y-111.76
X81.28Y-114.3
X86.36Y-66.04
X86.36Y-68.58
X86.36Y-71.12
X86.36Y-73.66
X86.36Y-76.2
X86.36Y-78.74
X86.36Y-81.28
X86.36Y-83.82
X86.36Y-101.6
X86.36Y-104.14
X86.36Y-106.68
X86.36Y-109.22
X86.36Y-111.76
X86.36Y-114.3
X86.36Y-116.84
X86.36Y-119.38
X93.98Y-76.2
X93.98Y-78.74
X93.98Y-81.28
X93.98Y-111.76
X93.98Y-114.3
X93.98Y-116.84
X96.52Y-76.2
X96.52Y-78.74
X96.52Y-81.28
X96.52Y-111.76
X96.52Y-114.3
X96.52Y-116.84
X99.06Y-66.04
X99.06Y-68.58
X99.06Y-71.12
X99.06Y-73.66
X99.06Y-76.2
X99.06Y-78.74
X99.06Y-81.28
X99.06Y-83.82
X99.06Y-101.6
X99.06Y-104.14
X99.06Y-106.68
X99.06Y-109.22
X99.06Y-111.76
X99.06Y-114.3
X99.06Y-116.84
X99.06Y-119.38
X111.76Y-162.56
X114.3Y-162.56
X116.84Y-162.56
X119.38Y-162.56
X121.92Y-162.56
X124.46Y-162.56
X127.0Y-162.56
X129.54Y-162.56
X132.08Y-162.56
X134.62Y-162.56
X139.7Y-71.12
X139.7Y-73.66
X139.7Y-76.2
X139.7Y-78.74
X139.7Y-106.68
X139.7Y-109.22
X139.7Y-111.76
X139.7Y-114.3
X144.78Y-66.04
X144.78Y-68.58
X144.78Y-71.12
X144.78Y-73.66
X144.78Y-76.2
X144.78Y-78.74
X144.78Y-81.28
X144.78Y-83.82
X144.78Y-101.6
X144.78Y-104.14
X144.78Y-106.68
X144.78Y-109.22
X144.78Y-111.76
X144.78Y-114.3
X144.78Y-116.84
X144.78Y-119.38
X152.4Y-76.2
X152.4Y-78.74
X152.4Y-81.28
X152.4Y-111.76
X152.4Y-114.3
X152.4Y-116.84
X154.94Y-76.2
X154.94Y-78.74
X154.94Y-81.28
X154.94Y-111.76
X154.94Y-114.3
X154.94Y-116.84
X157.48Y-66.04
X157.48Y-68.58
X157.48Y-71.12
X157.48Y-73.66
X157.48Y-76.2
X157.48Y-78.74
X157.48Y-81.28
X157.48Y-83.82
X157.48Y-101.6
X157.48Y-104.14
X157.48Y-106.68
X157.48Y-109.22
X157.48Y-111.76
X157.48Y-114.3
X157.48Y-116.84
X157.48Y-119.38
T0
M30
