%FSLAX45Y45*%
G04 Gerber Fmt 4.5, Leading zero omitted, Abs format (unit mm)*
G04 Created by KiCad (PCBNEW (6.0.2)) date 2025-01-10 20:48:14*
%MOMM*%
%LPD*%
G01*
G04 APERTURE LIST*
%ADD10C,0.200000*%
%ADD11C,0.100000*%
G04 APERTURE END LIST*
D10*
D11*
X13666000Y-8460500D02*
X13766000Y-8560500D01*
X13766000Y-8460500D02*
X13666000Y-8560500D01*
X13666000Y-8714500D02*
X13766000Y-8814500D01*
X13766000Y-8714500D02*
X13666000Y-8814500D01*
X13666000Y-8968500D02*
X13766000Y-9068500D01*
X13766000Y-8968500D02*
X13666000Y-9068500D01*
X13666000Y-9222500D02*
X13766000Y-9322500D01*
X13766000Y-9222500D02*
X13666000Y-9322500D01*
X13666000Y-9476500D02*
X13766000Y-9576500D01*
X13766000Y-9476500D02*
X13666000Y-9576500D01*
X13666000Y-9730500D02*
X13766000Y-9830500D01*
X13766000Y-9730500D02*
X13666000Y-9830500D01*
X13666000Y-9984500D02*
X13766000Y-10084500D01*
X13766000Y-9984500D02*
X13666000Y-10084500D01*
X13666000Y-10238500D02*
X13766000Y-10338500D01*
X13766000Y-10238500D02*
X13666000Y-10338500D01*
X13920000Y-8840000D02*
X14020000Y-8940000D01*
X14020000Y-8840000D02*
X13920000Y-8940000D01*
X13920000Y-9094000D02*
X14020000Y-9194000D01*
X14020000Y-9094000D02*
X13920000Y-9194000D01*
X13920000Y-9348000D02*
X14020000Y-9448000D01*
X14020000Y-9348000D02*
X13920000Y-9448000D01*
X13920000Y-9602000D02*
X14020000Y-9702000D01*
X14020000Y-9602000D02*
X13920000Y-9702000D01*
X13920000Y-9856000D02*
X14020000Y-9956000D01*
X14020000Y-9856000D02*
X13920000Y-9956000D01*
X14174000Y-8840000D02*
X14274000Y-8940000D01*
X14274000Y-8840000D02*
X14174000Y-8940000D01*
X14174000Y-9094000D02*
X14274000Y-9194000D01*
X14274000Y-9094000D02*
X14174000Y-9194000D01*
X14174000Y-9348000D02*
X14274000Y-9448000D01*
X14274000Y-9348000D02*
X14174000Y-9448000D01*
X14174000Y-9602000D02*
X14274000Y-9702000D01*
X14274000Y-9602000D02*
X14174000Y-9702000D01*
X14174000Y-9856000D02*
X14274000Y-9956000D01*
X14274000Y-9856000D02*
X14174000Y-9956000D01*
X14682000Y-9094000D02*
X14782000Y-9194000D01*
X14782000Y-9094000D02*
X14682000Y-9194000D01*
X14682000Y-9348000D02*
X14782000Y-9448000D01*
X14782000Y-9348000D02*
X14682000Y-9448000D01*
X14682000Y-9602000D02*
X14782000Y-9702000D01*
X14782000Y-9602000D02*
X14682000Y-9702000D01*
X14682000Y-9856000D02*
X14782000Y-9956000D01*
X14782000Y-9856000D02*
X14682000Y-9956000D01*
X14936000Y-8460500D02*
X15036000Y-8560500D01*
X15036000Y-8460500D02*
X14936000Y-8560500D01*
X14936000Y-8714500D02*
X15036000Y-8814500D01*
X15036000Y-8714500D02*
X14936000Y-8814500D01*
X14936000Y-8968500D02*
X15036000Y-9068500D01*
X15036000Y-8968500D02*
X14936000Y-9068500D01*
X14936000Y-9222500D02*
X15036000Y-9322500D01*
X15036000Y-9222500D02*
X14936000Y-9322500D01*
X14936000Y-9476500D02*
X15036000Y-9576500D01*
X15036000Y-9476500D02*
X14936000Y-9576500D01*
X14936000Y-9730500D02*
X15036000Y-9830500D01*
X15036000Y-9730500D02*
X14936000Y-9830500D01*
X14936000Y-9984500D02*
X15036000Y-10084500D01*
X15036000Y-9984500D02*
X14936000Y-10084500D01*
X14936000Y-10238500D02*
X15036000Y-10338500D01*
X15036000Y-10238500D02*
X14936000Y-10338500D01*
D10*
X257619Y-310476D02*
X257619Y-110476D01*
X305238Y-110476D01*
X333810Y-120000D01*
X352857Y-139048D01*
X362381Y-158095D01*
X371905Y-196190D01*
X371905Y-224762D01*
X362381Y-262857D01*
X352857Y-281905D01*
X333810Y-300952D01*
X305238Y-310476D01*
X257619Y-310476D01*
X457619Y-310476D02*
X457619Y-177143D01*
X457619Y-215238D02*
X467143Y-196190D01*
X476667Y-186667D01*
X495714Y-177143D01*
X514762Y-177143D01*
X581429Y-310476D02*
X581429Y-177143D01*
X581429Y-110476D02*
X571905Y-120000D01*
X581429Y-129524D01*
X590952Y-120000D01*
X581429Y-110476D01*
X581429Y-129524D01*
X705238Y-310476D02*
X686190Y-300952D01*
X676667Y-281905D01*
X676667Y-110476D01*
X810000Y-310476D02*
X790952Y-300952D01*
X781428Y-281905D01*
X781428Y-110476D01*
X1038571Y-310476D02*
X1038571Y-110476D01*
X1105238Y-253333D01*
X1171905Y-110476D01*
X1171905Y-310476D01*
X1352857Y-310476D02*
X1352857Y-205714D01*
X1343333Y-186667D01*
X1324286Y-177143D01*
X1286190Y-177143D01*
X1267143Y-186667D01*
X1352857Y-300952D02*
X1333810Y-310476D01*
X1286190Y-310476D01*
X1267143Y-300952D01*
X1257619Y-281905D01*
X1257619Y-262857D01*
X1267143Y-243809D01*
X1286190Y-234286D01*
X1333810Y-234286D01*
X1352857Y-224762D01*
X1448095Y-177143D02*
X1448095Y-377143D01*
X1448095Y-186667D02*
X1467143Y-177143D01*
X1505238Y-177143D01*
X1524286Y-186667D01*
X1533809Y-196190D01*
X1543333Y-215238D01*
X1543333Y-272381D01*
X1533809Y-291429D01*
X1524286Y-300952D01*
X1505238Y-310476D01*
X1467143Y-310476D01*
X1448095Y-300952D01*
X1629048Y-291429D02*
X1638571Y-300952D01*
X1629048Y-310476D01*
X1619524Y-300952D01*
X1629048Y-291429D01*
X1629048Y-310476D01*
X1629048Y-186667D02*
X1638571Y-196190D01*
X1629048Y-205714D01*
X1619524Y-196190D01*
X1629048Y-186667D01*
X1629048Y-205714D01*
D11*
X-100000Y-590000D02*
X0Y-690000D01*
X0Y-590000D02*
X-100000Y-690000D01*
D10*
X362381Y-730476D02*
X248095Y-730476D01*
X305238Y-730476D02*
X305238Y-530476D01*
X286190Y-559048D01*
X267143Y-578095D01*
X248095Y-587619D01*
X448095Y-711428D02*
X457619Y-720952D01*
X448095Y-730476D01*
X438571Y-720952D01*
X448095Y-711428D01*
X448095Y-730476D01*
X581429Y-530476D02*
X600476Y-530476D01*
X619524Y-540000D01*
X629048Y-549524D01*
X638571Y-568571D01*
X648095Y-606667D01*
X648095Y-654286D01*
X638571Y-692381D01*
X629048Y-711428D01*
X619524Y-720952D01*
X600476Y-730476D01*
X581429Y-730476D01*
X562381Y-720952D01*
X552857Y-711428D01*
X543333Y-692381D01*
X533810Y-654286D01*
X533810Y-606667D01*
X543333Y-568571D01*
X552857Y-549524D01*
X562381Y-540000D01*
X581429Y-530476D01*
X771905Y-530476D02*
X790952Y-530476D01*
X810000Y-540000D01*
X819524Y-549524D01*
X829048Y-568571D01*
X838571Y-606667D01*
X838571Y-654286D01*
X829048Y-692381D01*
X819524Y-711428D01*
X810000Y-720952D01*
X790952Y-730476D01*
X771905Y-730476D01*
X752857Y-720952D01*
X743333Y-711428D01*
X733809Y-692381D01*
X724286Y-654286D01*
X724286Y-606667D01*
X733809Y-568571D01*
X743333Y-549524D01*
X752857Y-540000D01*
X771905Y-530476D01*
X962381Y-530476D02*
X981428Y-530476D01*
X1000476Y-540000D01*
X1010000Y-549524D01*
X1019524Y-568571D01*
X1029048Y-606667D01*
X1029048Y-654286D01*
X1019524Y-692381D01*
X1010000Y-711428D01*
X1000476Y-720952D01*
X981428Y-730476D01*
X962381Y-730476D01*
X943333Y-720952D01*
X933809Y-711428D01*
X924286Y-692381D01*
X914762Y-654286D01*
X914762Y-606667D01*
X924286Y-568571D01*
X933809Y-549524D01*
X943333Y-540000D01*
X962381Y-530476D01*
X1114762Y-730476D02*
X1114762Y-597143D01*
X1114762Y-616190D02*
X1124286Y-606667D01*
X1143333Y-597143D01*
X1171905Y-597143D01*
X1190952Y-606667D01*
X1200476Y-625714D01*
X1200476Y-730476D01*
X1200476Y-625714D02*
X1210000Y-606667D01*
X1229048Y-597143D01*
X1257619Y-597143D01*
X1276667Y-606667D01*
X1286190Y-625714D01*
X1286190Y-730476D01*
X1381429Y-730476D02*
X1381429Y-597143D01*
X1381429Y-616190D02*
X1390952Y-606667D01*
X1410000Y-597143D01*
X1438571Y-597143D01*
X1457619Y-606667D01*
X1467143Y-625714D01*
X1467143Y-730476D01*
X1467143Y-625714D02*
X1476667Y-606667D01*
X1495714Y-597143D01*
X1524286Y-597143D01*
X1543333Y-606667D01*
X1552857Y-625714D01*
X1552857Y-730476D01*
X1943333Y-520952D02*
X1771905Y-778095D01*
X2200476Y-530476D02*
X2219524Y-530476D01*
X2238571Y-540000D01*
X2248095Y-549524D01*
X2257619Y-568571D01*
X2267143Y-606667D01*
X2267143Y-654286D01*
X2257619Y-692381D01*
X2248095Y-711428D01*
X2238571Y-720952D01*
X2219524Y-730476D01*
X2200476Y-730476D01*
X2181429Y-720952D01*
X2171905Y-711428D01*
X2162381Y-692381D01*
X2152857Y-654286D01*
X2152857Y-606667D01*
X2162381Y-568571D01*
X2171905Y-549524D01*
X2181429Y-540000D01*
X2200476Y-530476D01*
X2352857Y-711428D02*
X2362381Y-720952D01*
X2352857Y-730476D01*
X2343333Y-720952D01*
X2352857Y-711428D01*
X2352857Y-730476D01*
X2486190Y-530476D02*
X2505238Y-530476D01*
X2524286Y-540000D01*
X2533810Y-549524D01*
X2543333Y-568571D01*
X2552857Y-606667D01*
X2552857Y-654286D01*
X2543333Y-692381D01*
X2533810Y-711428D01*
X2524286Y-720952D01*
X2505238Y-730476D01*
X2486190Y-730476D01*
X2467143Y-720952D01*
X2457619Y-711428D01*
X2448095Y-692381D01*
X2438571Y-654286D01*
X2438571Y-606667D01*
X2448095Y-568571D01*
X2457619Y-549524D01*
X2467143Y-540000D01*
X2486190Y-530476D01*
X2619524Y-530476D02*
X2743333Y-530476D01*
X2676667Y-606667D01*
X2705238Y-606667D01*
X2724286Y-616190D01*
X2733810Y-625714D01*
X2743333Y-644762D01*
X2743333Y-692381D01*
X2733810Y-711428D01*
X2724286Y-720952D01*
X2705238Y-730476D01*
X2648095Y-730476D01*
X2629048Y-720952D01*
X2619524Y-711428D01*
X2838571Y-730476D02*
X2876667Y-730476D01*
X2895714Y-720952D01*
X2905238Y-711428D01*
X2924286Y-682857D01*
X2933809Y-644762D01*
X2933809Y-568571D01*
X2924286Y-549524D01*
X2914762Y-540000D01*
X2895714Y-530476D01*
X2857619Y-530476D01*
X2838571Y-540000D01*
X2829048Y-549524D01*
X2819524Y-568571D01*
X2819524Y-616190D01*
X2829048Y-635238D01*
X2838571Y-644762D01*
X2857619Y-654286D01*
X2895714Y-654286D01*
X2914762Y-644762D01*
X2924286Y-635238D01*
X2933809Y-616190D01*
X3105238Y-597143D02*
X3105238Y-730476D01*
X3057619Y-520952D02*
X3010000Y-663810D01*
X3133809Y-663810D01*
X3200476Y-530476D02*
X3200476Y-568571D01*
X3276667Y-530476D02*
X3276667Y-568571D01*
X3571905Y-806667D02*
X3562381Y-797143D01*
X3543333Y-768571D01*
X3533809Y-749524D01*
X3524286Y-720952D01*
X3514762Y-673333D01*
X3514762Y-635238D01*
X3524286Y-587619D01*
X3533809Y-559048D01*
X3543333Y-540000D01*
X3562381Y-511428D01*
X3571905Y-501905D01*
X3629048Y-530476D02*
X3752857Y-530476D01*
X3686190Y-606667D01*
X3714762Y-606667D01*
X3733809Y-616190D01*
X3743333Y-625714D01*
X3752857Y-644762D01*
X3752857Y-692381D01*
X3743333Y-711428D01*
X3733809Y-720952D01*
X3714762Y-730476D01*
X3657619Y-730476D01*
X3638571Y-720952D01*
X3629048Y-711428D01*
X3876667Y-530476D02*
X3895714Y-530476D01*
X3914762Y-540000D01*
X3924286Y-549524D01*
X3933809Y-568571D01*
X3943333Y-606667D01*
X3943333Y-654286D01*
X3933809Y-692381D01*
X3924286Y-711428D01*
X3914762Y-720952D01*
X3895714Y-730476D01*
X3876667Y-730476D01*
X3857619Y-720952D01*
X3848095Y-711428D01*
X3838571Y-692381D01*
X3829048Y-654286D01*
X3829048Y-606667D01*
X3838571Y-568571D01*
X3848095Y-549524D01*
X3857619Y-540000D01*
X3876667Y-530476D01*
X4181428Y-730476D02*
X4181428Y-530476D01*
X4267143Y-730476D02*
X4267143Y-625714D01*
X4257619Y-606667D01*
X4238571Y-597143D01*
X4210000Y-597143D01*
X4190952Y-606667D01*
X4181428Y-616190D01*
X4390952Y-730476D02*
X4371905Y-720952D01*
X4362381Y-711428D01*
X4352857Y-692381D01*
X4352857Y-635238D01*
X4362381Y-616190D01*
X4371905Y-606667D01*
X4390952Y-597143D01*
X4419524Y-597143D01*
X4438571Y-606667D01*
X4448095Y-616190D01*
X4457619Y-635238D01*
X4457619Y-692381D01*
X4448095Y-711428D01*
X4438571Y-720952D01*
X4419524Y-730476D01*
X4390952Y-730476D01*
X4571905Y-730476D02*
X4552857Y-720952D01*
X4543333Y-701905D01*
X4543333Y-530476D01*
X4724286Y-720952D02*
X4705238Y-730476D01*
X4667143Y-730476D01*
X4648095Y-720952D01*
X4638571Y-701905D01*
X4638571Y-625714D01*
X4648095Y-606667D01*
X4667143Y-597143D01*
X4705238Y-597143D01*
X4724286Y-606667D01*
X4733810Y-625714D01*
X4733810Y-644762D01*
X4638571Y-663810D01*
X4810000Y-720952D02*
X4829048Y-730476D01*
X4867143Y-730476D01*
X4886190Y-720952D01*
X4895714Y-701905D01*
X4895714Y-692381D01*
X4886190Y-673333D01*
X4867143Y-663810D01*
X4838571Y-663810D01*
X4819524Y-654286D01*
X4810000Y-635238D01*
X4810000Y-625714D01*
X4819524Y-606667D01*
X4838571Y-597143D01*
X4867143Y-597143D01*
X4886190Y-606667D01*
X4962381Y-806667D02*
X4971905Y-797143D01*
X4990952Y-768571D01*
X5000476Y-749524D01*
X5010000Y-720952D01*
X5019524Y-673333D01*
X5019524Y-635238D01*
X5010000Y-587619D01*
X5000476Y-559048D01*
X4990952Y-540000D01*
X4971905Y-511428D01*
X4962381Y-501905D01*
M02*
