M48
; DRILL file {KiCad (6.0.2)} date Fri Jan 10 20:47:53 2025
; FORMAT={-:-/ absolute / metric / decimal}
; #@! TF.CreationDate,2025-01-10T20:47:53+01:00
; #@! TF.GenerationSoftware,Kicad,Pcbnew,(6.0.2)
; #@! TF.FileFunction,Plated,1,2,PTH
FMAT,2
METRIC
; #@! TA.AperFunction,Plated,PTH,ComponentDrill
T1C1.000
%
G90
G05
T1
X137.16Y-85.105
X137.16Y-87.645
X137.16Y-90.185
X137.16Y-92.725
X137.16Y-95.265
X137.16Y-97.805
X137.16Y-100.345
X137.16Y-102.885
X139.7Y-88.9
X139.7Y-91.44
X139.7Y-93.98
X139.7Y-96.52
X139.7Y-99.06
X142.24Y-88.9
X142.24Y-91.44
X142.24Y-93.98
X142.24Y-96.52
X142.24Y-99.06
X147.32Y-91.44
X147.32Y-93.98
X147.32Y-96.52
X147.32Y-99.06
X149.86Y-85.105
X149.86Y-87.645
X149.86Y-90.185
X149.86Y-92.725
X149.86Y-95.265
X149.86Y-97.805
X149.86Y-100.345
X149.86Y-102.885
T0
M30
