M48
; DRILL file {KiCad (6.0.2)} date Thu Jan  9 20:14:21 2025
; FORMAT={-:-/ absolute / inch / decimal}
; #@! TF.CreationDate,2025-01-09T20:14:21+01:00
; #@! TF.GenerationSoftware,Kicad,Pcbnew,(6.0.2)
; #@! TF.FileFunction,Plated,1,2,PTH
FMAT,2
INCH
; #@! TA.AperFunction,Plated,PTH,ComponentDrill
T1C0.0394
%
G90
G05
T1
X5.4Y-3.3506
X5.4Y-3.4506
X5.4Y-3.5506
X5.4Y-3.6506
X5.4Y-3.7506
X5.4Y-3.8506
X5.4Y-3.9506
X5.4Y-4.0506
X5.5Y-3.5
X5.5Y-3.6
X5.5Y-3.7
X5.5Y-3.8
X5.5Y-3.9
X5.6Y-3.5
X5.6Y-3.6
X5.6Y-3.7
X5.6Y-3.8
X5.6Y-3.9
X5.8Y-3.6
X5.8Y-3.7
X5.8Y-3.8
X5.8Y-3.9
X5.9Y-3.3506
X5.9Y-3.4506
X5.9Y-3.5506
X5.9Y-3.6506
X5.9Y-3.7506
X5.9Y-3.8506
X5.9Y-3.9506
X5.9Y-4.0506
T0
M30
