M48
; DRILL file {KiCad (6.0.2)} date Fri Jan 10 20:49:46 2025
; FORMAT={-:-/ absolute / metric / decimal}
; #@! TF.CreationDate,2025-01-10T20:49:46+01:00
; #@! TF.GenerationSoftware,Kicad,Pcbnew,(6.0.2)
; #@! TF.FileFunction,Plated,1,2,PTH
FMAT,2
METRIC
; #@! TA.AperFunction,Plated,PTH,ComponentDrill
T1C0.700
; #@! TA.AperFunction,Plated,PTH,ComponentDrill
T2C0.800
; #@! TA.AperFunction,Plated,PTH,ComponentDrill
T3C1.000
%
G90
G05
T1
X120.65Y-124.46
X121.92Y-121.92
X128.27Y-124.46
X129.54Y-121.92
X137.16Y-93.98
X139.7Y-91.44
X144.78Y-93.98
X147.32Y-91.44
T2
X109.22Y-116.88
X109.22Y-119.38
X160.02Y-96.52
X160.02Y-99.02
T3
X111.76Y-104.14
X111.76Y-106.68
X111.76Y-109.22
X111.76Y-111.76
X116.84Y-99.06
X116.84Y-101.6
X116.84Y-104.14
X116.84Y-106.68
X116.84Y-109.22
X116.84Y-111.76
X116.84Y-114.3
X116.84Y-116.84
X124.46Y-109.22
X124.46Y-111.76
X124.46Y-114.3
X127.0Y-109.22
X127.0Y-111.76
X127.0Y-114.3
X127.0Y-132.08
X129.54Y-99.06
X129.54Y-101.6
X129.54Y-104.14
X129.54Y-106.68
X129.54Y-109.22
X129.54Y-111.76
X129.54Y-114.3
X129.54Y-116.84
X129.54Y-132.08
X132.08Y-132.08
X134.62Y-132.08
X137.16Y-132.08
X139.7Y-99.06
X139.7Y-101.6
X139.7Y-104.14
X139.7Y-106.68
X139.7Y-109.22
X139.7Y-111.76
X139.7Y-114.3
X139.7Y-116.84
X139.7Y-132.08
X142.24Y-101.6
X142.24Y-104.14
X142.24Y-106.68
X144.78Y-101.6
X144.78Y-104.14
X144.78Y-106.68
X152.4Y-99.06
X152.4Y-101.6
X152.4Y-104.14
X152.4Y-106.68
X152.4Y-109.22
X152.4Y-111.76
X152.4Y-114.3
X152.4Y-116.84
X157.48Y-104.14
X157.48Y-106.68
X157.48Y-109.22
X157.48Y-111.76
T0
M30
