G04 #@! TF.GenerationSoftware,KiCad,Pcbnew,(6.0.2)*
G04 #@! TF.CreationDate,2025-01-10T20:50:02+01:00*
G04 #@! TF.ProjectId,2motor,326d6f74-6f72-42e6-9b69-6361645f7063,rev?*
G04 #@! TF.SameCoordinates,Original*
G04 #@! TF.FileFunction,Legend,Top*
G04 #@! TF.FilePolarity,Positive*
%FSLAX46Y46*%
G04 Gerber Fmt 4.6, Leading zero omitted, Abs format (unit mm)*
G04 Created by KiCad (PCBNEW (6.0.2)) date 2025-01-10 20:50:02*
%MOMM*%
%LPD*%
G01*
G04 APERTURE LIST*
%ADD10C,0.150000*%
%ADD11C,0.120000*%
%ADD12R,1.700000X1.700000*%
%ADD13O,1.700000X1.700000*%
%ADD14C,1.400000*%
%ADD15O,1.400000X1.400000*%
%ADD16R,1.600000X1.600000*%
%ADD17C,1.600000*%
G04 APERTURE END LIST*
D10*
X129206666Y-95742380D02*
X129206666Y-96456666D01*
X129159047Y-96599523D01*
X129063809Y-96694761D01*
X128920952Y-96742380D01*
X128825714Y-96742380D01*
X129587619Y-95742380D02*
X130206666Y-95742380D01*
X129873333Y-96123333D01*
X130016190Y-96123333D01*
X130111428Y-96170952D01*
X130159047Y-96218571D01*
X130206666Y-96313809D01*
X130206666Y-96551904D01*
X130159047Y-96647142D01*
X130111428Y-96694761D01*
X130016190Y-96742380D01*
X129730476Y-96742380D01*
X129635238Y-96694761D01*
X129587619Y-96647142D01*
X143970476Y-98722380D02*
X143970476Y-99436666D01*
X143922857Y-99579523D01*
X143827619Y-99674761D01*
X143684761Y-99722380D01*
X143589523Y-99722380D01*
X144970476Y-99722380D02*
X144399047Y-99722380D01*
X144684761Y-99722380D02*
X144684761Y-98722380D01*
X144589523Y-98865238D01*
X144494285Y-98960476D01*
X144399047Y-99008095D01*
X145589523Y-98722380D02*
X145684761Y-98722380D01*
X145780000Y-98770000D01*
X145827619Y-98817619D01*
X145875238Y-98912857D01*
X145922857Y-99103333D01*
X145922857Y-99341428D01*
X145875238Y-99531904D01*
X145827619Y-99627142D01*
X145780000Y-99674761D01*
X145684761Y-99722380D01*
X145589523Y-99722380D01*
X145494285Y-99674761D01*
X145446666Y-99627142D01*
X145399047Y-99531904D01*
X145351428Y-99341428D01*
X145351428Y-99103333D01*
X145399047Y-98912857D01*
X145446666Y-98817619D01*
X145494285Y-98770000D01*
X145589523Y-98722380D01*
X131913333Y-124912380D02*
X131580000Y-124436190D01*
X131341904Y-124912380D02*
X131341904Y-123912380D01*
X131722857Y-123912380D01*
X131818095Y-123960000D01*
X131865714Y-124007619D01*
X131913333Y-124102857D01*
X131913333Y-124245714D01*
X131865714Y-124340952D01*
X131818095Y-124388571D01*
X131722857Y-124436190D01*
X131341904Y-124436190D01*
X132865714Y-124912380D02*
X132294285Y-124912380D01*
X132580000Y-124912380D02*
X132580000Y-123912380D01*
X132484761Y-124055238D01*
X132389523Y-124150476D01*
X132294285Y-124198095D01*
X141922380Y-132413333D02*
X142636666Y-132413333D01*
X142779523Y-132460952D01*
X142874761Y-132556190D01*
X142922380Y-132699047D01*
X142922380Y-132794285D01*
X142922380Y-131413333D02*
X142922380Y-131984761D01*
X142922380Y-131699047D02*
X141922380Y-131699047D01*
X142065238Y-131794285D01*
X142160476Y-131889523D01*
X142208095Y-131984761D01*
X164127142Y-97936666D02*
X164174761Y-97984285D01*
X164222380Y-98127142D01*
X164222380Y-98222380D01*
X164174761Y-98365238D01*
X164079523Y-98460476D01*
X163984285Y-98508095D01*
X163793809Y-98555714D01*
X163650952Y-98555714D01*
X163460476Y-98508095D01*
X163365238Y-98460476D01*
X163270000Y-98365238D01*
X163222380Y-98222380D01*
X163222380Y-98127142D01*
X163270000Y-97984285D01*
X163317619Y-97936666D01*
X163317619Y-97555714D02*
X163270000Y-97508095D01*
X163222380Y-97412857D01*
X163222380Y-97174761D01*
X163270000Y-97079523D01*
X163317619Y-97031904D01*
X163412857Y-96984285D01*
X163508095Y-96984285D01*
X163650952Y-97031904D01*
X164222380Y-97603333D01*
X164222380Y-96984285D01*
X124126666Y-106342380D02*
X124126666Y-107056666D01*
X124079047Y-107199523D01*
X123983809Y-107294761D01*
X123840952Y-107342380D01*
X123745714Y-107342380D01*
X124650476Y-107342380D02*
X124840952Y-107342380D01*
X124936190Y-107294761D01*
X124983809Y-107247142D01*
X125079047Y-107104285D01*
X125126666Y-106913809D01*
X125126666Y-106532857D01*
X125079047Y-106437619D01*
X125031428Y-106390000D01*
X124936190Y-106342380D01*
X124745714Y-106342380D01*
X124650476Y-106390000D01*
X124602857Y-106437619D01*
X124555238Y-106532857D01*
X124555238Y-106770952D01*
X124602857Y-106866190D01*
X124650476Y-106913809D01*
X124745714Y-106961428D01*
X124936190Y-106961428D01*
X125031428Y-106913809D01*
X125079047Y-106866190D01*
X125126666Y-106770952D01*
X149693333Y-94432380D02*
X149360000Y-93956190D01*
X149121904Y-94432380D02*
X149121904Y-93432380D01*
X149502857Y-93432380D01*
X149598095Y-93480000D01*
X149645714Y-93527619D01*
X149693333Y-93622857D01*
X149693333Y-93765714D01*
X149645714Y-93860952D01*
X149598095Y-93908571D01*
X149502857Y-93956190D01*
X149121904Y-93956190D01*
X150550476Y-93765714D02*
X150550476Y-94432380D01*
X150312380Y-93384761D02*
X150074285Y-94099047D01*
X150693333Y-94099047D01*
X152066666Y-95742380D02*
X152066666Y-96456666D01*
X152019047Y-96599523D01*
X151923809Y-96694761D01*
X151780952Y-96742380D01*
X151685714Y-96742380D01*
X153019047Y-95742380D02*
X152542857Y-95742380D01*
X152495238Y-96218571D01*
X152542857Y-96170952D01*
X152638095Y-96123333D01*
X152876190Y-96123333D01*
X152971428Y-96170952D01*
X153019047Y-96218571D01*
X153066666Y-96313809D01*
X153066666Y-96551904D01*
X153019047Y-96647142D01*
X152971428Y-96694761D01*
X152876190Y-96742380D01*
X152638095Y-96742380D01*
X152542857Y-96694761D01*
X152495238Y-96647142D01*
X149693333Y-91892380D02*
X149360000Y-91416190D01*
X149121904Y-91892380D02*
X149121904Y-90892380D01*
X149502857Y-90892380D01*
X149598095Y-90940000D01*
X149645714Y-90987619D01*
X149693333Y-91082857D01*
X149693333Y-91225714D01*
X149645714Y-91320952D01*
X149598095Y-91368571D01*
X149502857Y-91416190D01*
X149121904Y-91416190D01*
X150026666Y-90892380D02*
X150645714Y-90892380D01*
X150312380Y-91273333D01*
X150455238Y-91273333D01*
X150550476Y-91320952D01*
X150598095Y-91368571D01*
X150645714Y-91463809D01*
X150645714Y-91701904D01*
X150598095Y-91797142D01*
X150550476Y-91844761D01*
X150455238Y-91892380D01*
X150169523Y-91892380D01*
X150074285Y-91844761D01*
X150026666Y-91797142D01*
X139366666Y-95742380D02*
X139366666Y-96456666D01*
X139319047Y-96599523D01*
X139223809Y-96694761D01*
X139080952Y-96742380D01*
X138985714Y-96742380D01*
X140271428Y-96075714D02*
X140271428Y-96742380D01*
X140033333Y-95694761D02*
X139795238Y-96409047D01*
X140414285Y-96409047D01*
X131913333Y-122372380D02*
X131580000Y-121896190D01*
X131341904Y-122372380D02*
X131341904Y-121372380D01*
X131722857Y-121372380D01*
X131818095Y-121420000D01*
X131865714Y-121467619D01*
X131913333Y-121562857D01*
X131913333Y-121705714D01*
X131865714Y-121800952D01*
X131818095Y-121848571D01*
X131722857Y-121896190D01*
X131341904Y-121896190D01*
X132294285Y-121467619D02*
X132341904Y-121420000D01*
X132437142Y-121372380D01*
X132675238Y-121372380D01*
X132770476Y-121420000D01*
X132818095Y-121467619D01*
X132865714Y-121562857D01*
X132865714Y-121658095D01*
X132818095Y-121800952D01*
X132246666Y-122372380D01*
X132865714Y-122372380D01*
X111426666Y-101262380D02*
X111426666Y-101976666D01*
X111379047Y-102119523D01*
X111283809Y-102214761D01*
X111140952Y-102262380D01*
X111045714Y-102262380D01*
X112331428Y-101262380D02*
X112140952Y-101262380D01*
X112045714Y-101310000D01*
X111998095Y-101357619D01*
X111902857Y-101500476D01*
X111855238Y-101690952D01*
X111855238Y-102071904D01*
X111902857Y-102167142D01*
X111950476Y-102214761D01*
X112045714Y-102262380D01*
X112236190Y-102262380D01*
X112331428Y-102214761D01*
X112379047Y-102167142D01*
X112426666Y-102071904D01*
X112426666Y-101833809D01*
X112379047Y-101738571D01*
X112331428Y-101690952D01*
X112236190Y-101643333D01*
X112045714Y-101643333D01*
X111950476Y-101690952D01*
X111902857Y-101738571D01*
X111855238Y-101833809D01*
X116506666Y-95742380D02*
X116506666Y-96456666D01*
X116459047Y-96599523D01*
X116363809Y-96694761D01*
X116220952Y-96742380D01*
X116125714Y-96742380D01*
X116935238Y-95837619D02*
X116982857Y-95790000D01*
X117078095Y-95742380D01*
X117316190Y-95742380D01*
X117411428Y-95790000D01*
X117459047Y-95837619D01*
X117506666Y-95932857D01*
X117506666Y-96028095D01*
X117459047Y-96170952D01*
X116887619Y-96742380D01*
X117506666Y-96742380D01*
X126666666Y-106342380D02*
X126666666Y-107056666D01*
X126619047Y-107199523D01*
X126523809Y-107294761D01*
X126380952Y-107342380D01*
X126285714Y-107342380D01*
X127285714Y-106770952D02*
X127190476Y-106723333D01*
X127142857Y-106675714D01*
X127095238Y-106580476D01*
X127095238Y-106532857D01*
X127142857Y-106437619D01*
X127190476Y-106390000D01*
X127285714Y-106342380D01*
X127476190Y-106342380D01*
X127571428Y-106390000D01*
X127619047Y-106437619D01*
X127666666Y-106532857D01*
X127666666Y-106580476D01*
X127619047Y-106675714D01*
X127571428Y-106723333D01*
X127476190Y-106770952D01*
X127285714Y-106770952D01*
X127190476Y-106818571D01*
X127142857Y-106866190D01*
X127095238Y-106961428D01*
X127095238Y-107151904D01*
X127142857Y-107247142D01*
X127190476Y-107294761D01*
X127285714Y-107342380D01*
X127476190Y-107342380D01*
X127571428Y-107294761D01*
X127619047Y-107247142D01*
X127666666Y-107151904D01*
X127666666Y-106961428D01*
X127619047Y-106866190D01*
X127571428Y-106818571D01*
X127476190Y-106770952D01*
X141430476Y-98722380D02*
X141430476Y-99436666D01*
X141382857Y-99579523D01*
X141287619Y-99674761D01*
X141144761Y-99722380D01*
X141049523Y-99722380D01*
X142430476Y-99722380D02*
X141859047Y-99722380D01*
X142144761Y-99722380D02*
X142144761Y-98722380D01*
X142049523Y-98865238D01*
X141954285Y-98960476D01*
X141859047Y-99008095D01*
X143382857Y-99722380D02*
X142811428Y-99722380D01*
X143097142Y-99722380D02*
X143097142Y-98722380D01*
X143001904Y-98865238D01*
X142906666Y-98960476D01*
X142811428Y-99008095D01*
X105827142Y-118296666D02*
X105874761Y-118344285D01*
X105922380Y-118487142D01*
X105922380Y-118582380D01*
X105874761Y-118725238D01*
X105779523Y-118820476D01*
X105684285Y-118868095D01*
X105493809Y-118915714D01*
X105350952Y-118915714D01*
X105160476Y-118868095D01*
X105065238Y-118820476D01*
X104970000Y-118725238D01*
X104922380Y-118582380D01*
X104922380Y-118487142D01*
X104970000Y-118344285D01*
X105017619Y-118296666D01*
X105922380Y-117344285D02*
X105922380Y-117915714D01*
X105922380Y-117630000D02*
X104922380Y-117630000D01*
X105065238Y-117725238D01*
X105160476Y-117820476D01*
X105208095Y-117915714D01*
X157146666Y-101262380D02*
X157146666Y-101976666D01*
X157099047Y-102119523D01*
X157003809Y-102214761D01*
X156860952Y-102262380D01*
X156765714Y-102262380D01*
X157527619Y-101262380D02*
X158194285Y-101262380D01*
X157765714Y-102262380D01*
D11*
X129540000Y-97730000D02*
X130870000Y-97730000D01*
X128210000Y-118170000D02*
X130870000Y-118170000D01*
X128210000Y-100330000D02*
X130870000Y-100330000D01*
X128210000Y-100330000D02*
X128210000Y-118170000D01*
X130870000Y-100330000D02*
X130870000Y-118170000D01*
X130870000Y-97730000D02*
X130870000Y-99060000D01*
X143450000Y-102870000D02*
X146110000Y-102870000D01*
X143450000Y-101600000D02*
X143450000Y-100270000D01*
X143450000Y-100270000D02*
X144780000Y-100270000D01*
X143450000Y-108010000D02*
X146110000Y-108010000D01*
X143450000Y-102870000D02*
X143450000Y-108010000D01*
X146110000Y-102870000D02*
X146110000Y-108010000D01*
X121590000Y-124460000D02*
X122540000Y-124460000D01*
X122540000Y-125380000D02*
X126380000Y-125380000D01*
X126380000Y-125380000D02*
X126380000Y-123540000D01*
X126380000Y-123540000D02*
X122540000Y-123540000D01*
X122540000Y-123540000D02*
X122540000Y-125380000D01*
X127330000Y-124460000D02*
X126380000Y-124460000D01*
X138430000Y-130750000D02*
X138430000Y-133410000D01*
X141030000Y-132080000D02*
X141030000Y-133410000D01*
X138430000Y-130750000D02*
X125670000Y-130750000D01*
X125670000Y-130750000D02*
X125670000Y-133410000D01*
X138430000Y-133410000D02*
X125670000Y-133410000D01*
X141030000Y-133410000D02*
X139700000Y-133410000D01*
X161271000Y-100051000D02*
X161060000Y-100051000D01*
X162462000Y-98611000D02*
X161060000Y-98611000D01*
X158980000Y-99331000D02*
X157955000Y-99331000D01*
X162556000Y-98250000D02*
X161060000Y-98250000D01*
X162540000Y-98330000D02*
X161060000Y-98330000D01*
X162531000Y-98370000D02*
X161060000Y-98370000D01*
X158980000Y-99931000D02*
X158577000Y-99931000D01*
X158980000Y-99371000D02*
X157985000Y-99371000D01*
X161745000Y-95215225D02*
X161245000Y-95215225D01*
X162142000Y-99251000D02*
X161060000Y-99251000D01*
X158980000Y-98130000D02*
X157464000Y-98130000D01*
X158980000Y-99971000D02*
X158637000Y-99971000D01*
X162521000Y-98410000D02*
X161060000Y-98410000D01*
X162330000Y-98931000D02*
X161060000Y-98931000D01*
X158980000Y-99611000D02*
X158194000Y-99611000D01*
X162596000Y-97930000D02*
X157444000Y-97930000D01*
X160935000Y-100211000D02*
X159105000Y-100211000D01*
X162195000Y-99171000D02*
X161060000Y-99171000D01*
X161719000Y-99731000D02*
X161060000Y-99731000D01*
X162600000Y-97770000D02*
X157440000Y-97770000D01*
X162115000Y-99291000D02*
X161060000Y-99291000D01*
X162548000Y-98290000D02*
X161060000Y-98290000D01*
X158980000Y-99451000D02*
X158049000Y-99451000D01*
X158980000Y-98491000D02*
X157540000Y-98491000D01*
X158980000Y-98851000D02*
X157672000Y-98851000D01*
X158980000Y-98330000D02*
X157500000Y-98330000D01*
X158980000Y-98410000D02*
X157519000Y-98410000D01*
X162349000Y-98891000D02*
X161060000Y-98891000D01*
X161625000Y-99811000D02*
X161060000Y-99811000D01*
X161118000Y-100131000D02*
X158922000Y-100131000D01*
X162488000Y-98531000D02*
X161060000Y-98531000D01*
X162418000Y-98731000D02*
X161060000Y-98731000D01*
X158980000Y-98370000D02*
X157509000Y-98370000D01*
X158980000Y-98931000D02*
X157710000Y-98931000D01*
X158980000Y-98691000D02*
X157606000Y-98691000D01*
X158980000Y-99131000D02*
X157820000Y-99131000D01*
X162055000Y-99371000D02*
X161060000Y-99371000D01*
X158980000Y-99411000D02*
X158016000Y-99411000D01*
X161921000Y-99531000D02*
X161060000Y-99531000D01*
X158980000Y-98210000D02*
X157477000Y-98210000D01*
X158980000Y-99291000D02*
X157925000Y-99291000D01*
X158980000Y-98971000D02*
X157730000Y-98971000D01*
X162402000Y-98771000D02*
X161060000Y-98771000D01*
X160697000Y-100291000D02*
X159343000Y-100291000D01*
X158980000Y-98050000D02*
X157455000Y-98050000D01*
X162570000Y-98170000D02*
X161060000Y-98170000D01*
X162511000Y-98450000D02*
X161060000Y-98450000D01*
X158980000Y-98531000D02*
X157552000Y-98531000D01*
X162576000Y-98130000D02*
X161060000Y-98130000D01*
X158980000Y-98891000D02*
X157691000Y-98891000D01*
X158980000Y-99851000D02*
X158466000Y-99851000D01*
X161846000Y-99611000D02*
X161060000Y-99611000D01*
X161957000Y-99491000D02*
X161060000Y-99491000D01*
X162563000Y-98210000D02*
X161060000Y-98210000D01*
X161884000Y-99571000D02*
X161060000Y-99571000D01*
X158980000Y-98651000D02*
X157592000Y-98651000D01*
X161198000Y-100091000D02*
X158842000Y-100091000D01*
X158980000Y-98170000D02*
X157470000Y-98170000D01*
X162085000Y-99331000D02*
X161060000Y-99331000D01*
X161673000Y-99771000D02*
X161060000Y-99771000D01*
X162598000Y-97890000D02*
X157442000Y-97890000D01*
X158980000Y-99531000D02*
X158119000Y-99531000D01*
X158980000Y-99811000D02*
X158415000Y-99811000D01*
X160538000Y-100331000D02*
X159502000Y-100331000D01*
X162024000Y-99411000D02*
X161060000Y-99411000D01*
X161520000Y-99891000D02*
X161060000Y-99891000D01*
X161574000Y-99851000D02*
X161060000Y-99851000D01*
X162593000Y-97970000D02*
X157447000Y-97970000D01*
X162475000Y-98571000D02*
X161060000Y-98571000D01*
X162599000Y-97850000D02*
X157441000Y-97850000D01*
X162220000Y-99131000D02*
X161060000Y-99131000D01*
X158980000Y-99891000D02*
X158520000Y-99891000D01*
X162434000Y-98691000D02*
X161060000Y-98691000D01*
X162267000Y-99051000D02*
X161060000Y-99051000D01*
X158980000Y-99491000D02*
X158083000Y-99491000D01*
X160825000Y-100251000D02*
X159215000Y-100251000D01*
X162288000Y-99011000D02*
X161060000Y-99011000D01*
X162385000Y-98811000D02*
X161060000Y-98811000D01*
X158980000Y-99691000D02*
X158277000Y-99691000D01*
X161031000Y-100171000D02*
X159009000Y-100171000D01*
X158980000Y-99731000D02*
X158321000Y-99731000D01*
X161763000Y-99691000D02*
X161060000Y-99691000D01*
X161805000Y-99651000D02*
X161060000Y-99651000D01*
X162585000Y-98050000D02*
X161060000Y-98050000D01*
X158980000Y-99771000D02*
X158367000Y-99771000D01*
X158980000Y-100051000D02*
X158769000Y-100051000D01*
X162368000Y-98851000D02*
X161060000Y-98851000D01*
X161495000Y-94965225D02*
X161495000Y-95465225D01*
X158980000Y-98731000D02*
X157622000Y-98731000D01*
X162448000Y-98651000D02*
X161060000Y-98651000D01*
X162310000Y-98971000D02*
X161060000Y-98971000D01*
X158980000Y-99571000D02*
X158156000Y-99571000D01*
X158980000Y-98250000D02*
X157484000Y-98250000D01*
X162244000Y-99091000D02*
X161060000Y-99091000D01*
X161339000Y-100011000D02*
X161060000Y-100011000D01*
X162581000Y-98090000D02*
X161060000Y-98090000D01*
X160304000Y-100371000D02*
X159736000Y-100371000D01*
X158980000Y-100011000D02*
X158701000Y-100011000D01*
X158980000Y-99211000D02*
X157871000Y-99211000D01*
X162589000Y-98010000D02*
X161060000Y-98010000D01*
X158980000Y-99651000D02*
X158235000Y-99651000D01*
X158980000Y-98611000D02*
X157578000Y-98611000D01*
X158980000Y-99171000D02*
X157845000Y-99171000D01*
X162169000Y-99211000D02*
X161060000Y-99211000D01*
X162500000Y-98491000D02*
X161060000Y-98491000D01*
X158980000Y-99091000D02*
X157796000Y-99091000D01*
X161463000Y-99931000D02*
X161060000Y-99931000D01*
X158980000Y-98571000D02*
X157565000Y-98571000D01*
X158980000Y-99051000D02*
X157773000Y-99051000D01*
X158980000Y-99011000D02*
X157752000Y-99011000D01*
X158980000Y-98290000D02*
X157492000Y-98290000D01*
X158980000Y-98811000D02*
X157655000Y-98811000D01*
X158980000Y-98771000D02*
X157638000Y-98771000D01*
X158980000Y-98010000D02*
X157451000Y-98010000D01*
X161991000Y-99451000D02*
X161060000Y-99451000D01*
X161403000Y-99971000D02*
X161060000Y-99971000D01*
X158980000Y-98090000D02*
X157459000Y-98090000D01*
X158980000Y-98450000D02*
X157529000Y-98450000D01*
X162600000Y-97810000D02*
X157440000Y-97810000D01*
X158980000Y-99251000D02*
X157898000Y-99251000D01*
X162640000Y-97770000D02*
G75*
G03*
X162640000Y-97770000I-2620000J0D01*
G01*
X123130000Y-110490000D02*
X123130000Y-115630000D01*
X125790000Y-110490000D02*
X125790000Y-115630000D01*
X123130000Y-115630000D02*
X125790000Y-115630000D01*
X123130000Y-109220000D02*
X123130000Y-107890000D01*
X123130000Y-110490000D02*
X125790000Y-110490000D01*
X123130000Y-107890000D02*
X124460000Y-107890000D01*
X142890000Y-93060000D02*
X139050000Y-93060000D01*
X143840000Y-93980000D02*
X142890000Y-93980000D01*
X142890000Y-94900000D02*
X142890000Y-93060000D01*
X139050000Y-93060000D02*
X139050000Y-94900000D01*
X138100000Y-93980000D02*
X139050000Y-93980000D01*
X139050000Y-94900000D02*
X142890000Y-94900000D01*
X153730000Y-97730000D02*
X153730000Y-99060000D01*
X151070000Y-100330000D02*
X151070000Y-118170000D01*
X151070000Y-118170000D02*
X153730000Y-118170000D01*
X152400000Y-97730000D02*
X153730000Y-97730000D01*
X151070000Y-100330000D02*
X153730000Y-100330000D01*
X153730000Y-100330000D02*
X153730000Y-118170000D01*
X141590000Y-92360000D02*
X145430000Y-92360000D01*
X146380000Y-91440000D02*
X145430000Y-91440000D01*
X140640000Y-91440000D02*
X141590000Y-91440000D01*
X145430000Y-92360000D02*
X145430000Y-90520000D01*
X145430000Y-90520000D02*
X141590000Y-90520000D01*
X141590000Y-90520000D02*
X141590000Y-92360000D01*
X141030000Y-100330000D02*
X141030000Y-118170000D01*
X138370000Y-100330000D02*
X141030000Y-100330000D01*
X141030000Y-97730000D02*
X141030000Y-99060000D01*
X138370000Y-118170000D02*
X141030000Y-118170000D01*
X139700000Y-97730000D02*
X141030000Y-97730000D01*
X138370000Y-100330000D02*
X138370000Y-118170000D01*
X127650000Y-122840000D02*
X127650000Y-121000000D01*
X128600000Y-121920000D02*
X127650000Y-121920000D01*
X127650000Y-121000000D02*
X123810000Y-121000000D01*
X123810000Y-121000000D02*
X123810000Y-122840000D01*
X122860000Y-121920000D02*
X123810000Y-121920000D01*
X123810000Y-122840000D02*
X127650000Y-122840000D01*
X110430000Y-105410000D02*
X113090000Y-105410000D01*
X113090000Y-105410000D02*
X113090000Y-113090000D01*
X110430000Y-113090000D02*
X113090000Y-113090000D01*
X110430000Y-102810000D02*
X111760000Y-102810000D01*
X110430000Y-105410000D02*
X110430000Y-113090000D01*
X110430000Y-104140000D02*
X110430000Y-102810000D01*
X115510000Y-118170000D02*
X118170000Y-118170000D01*
X118170000Y-97730000D02*
X118170000Y-99060000D01*
X115510000Y-100330000D02*
X118170000Y-100330000D01*
X118170000Y-100330000D02*
X118170000Y-118170000D01*
X115510000Y-100330000D02*
X115510000Y-118170000D01*
X116840000Y-97730000D02*
X118170000Y-97730000D01*
X125670000Y-109220000D02*
X125670000Y-107890000D01*
X128330000Y-110490000D02*
X128330000Y-115630000D01*
X125670000Y-110490000D02*
X125670000Y-115630000D01*
X125670000Y-110490000D02*
X128330000Y-110490000D01*
X125670000Y-115630000D02*
X128330000Y-115630000D01*
X125670000Y-107890000D02*
X127000000Y-107890000D01*
X140910000Y-102870000D02*
X140910000Y-108010000D01*
X143570000Y-102870000D02*
X143570000Y-108010000D01*
X140910000Y-102870000D02*
X143570000Y-102870000D01*
X140910000Y-108010000D02*
X143570000Y-108010000D01*
X140910000Y-100270000D02*
X142240000Y-100270000D01*
X140910000Y-101600000D02*
X140910000Y-100270000D01*
X110260000Y-117890000D02*
X111789000Y-117890000D01*
X106640000Y-118130000D02*
X111800000Y-118130000D01*
X108042000Y-115809000D02*
X110398000Y-115809000D01*
X106709000Y-117530000D02*
X108180000Y-117530000D01*
X110260000Y-116009000D02*
X110720000Y-116009000D01*
X110260000Y-116609000D02*
X111315000Y-116609000D01*
X107394000Y-116289000D02*
X108180000Y-116289000D01*
X110260000Y-116889000D02*
X111488000Y-116889000D01*
X110260000Y-117730000D02*
X111770000Y-117730000D01*
X110260000Y-116129000D02*
X110873000Y-116129000D01*
X106765000Y-117329000D02*
X108180000Y-117329000D01*
X107216000Y-116489000D02*
X108180000Y-116489000D01*
X110260000Y-117329000D02*
X111675000Y-117329000D01*
X108122000Y-115769000D02*
X110318000Y-115769000D01*
X106729000Y-117450000D02*
X108180000Y-117450000D01*
X110260000Y-115889000D02*
X110539000Y-115889000D01*
X107901000Y-115889000D02*
X108180000Y-115889000D01*
X107495000Y-120684775D02*
X107995000Y-120684775D01*
X107125000Y-116609000D02*
X108180000Y-116609000D01*
X110260000Y-117770000D02*
X111776000Y-117770000D01*
X110260000Y-116449000D02*
X111191000Y-116449000D01*
X110260000Y-116729000D02*
X111395000Y-116729000D01*
X110260000Y-117049000D02*
X111568000Y-117049000D01*
X110260000Y-116209000D02*
X110963000Y-116209000D01*
X106659000Y-117810000D02*
X108180000Y-117810000D01*
X110260000Y-117450000D02*
X111711000Y-117450000D01*
X106640000Y-118090000D02*
X111800000Y-118090000D01*
X110260000Y-117209000D02*
X111634000Y-117209000D01*
X106891000Y-117009000D02*
X108180000Y-117009000D01*
X108702000Y-115569000D02*
X109738000Y-115569000D01*
X110260000Y-117850000D02*
X111785000Y-117850000D01*
X108209000Y-115729000D02*
X110231000Y-115729000D01*
X110260000Y-117289000D02*
X111662000Y-117289000D01*
X107435000Y-116249000D02*
X108180000Y-116249000D01*
X107615000Y-116089000D02*
X108180000Y-116089000D01*
X110260000Y-116649000D02*
X111342000Y-116649000D01*
X107567000Y-116129000D02*
X108180000Y-116129000D01*
X110260000Y-117610000D02*
X111748000Y-117610000D01*
X107777000Y-115969000D02*
X108180000Y-115969000D01*
X106700000Y-117570000D02*
X108180000Y-117570000D01*
X110260000Y-117530000D02*
X111731000Y-117530000D01*
X110260000Y-116369000D02*
X111121000Y-116369000D01*
X110260000Y-115969000D02*
X110663000Y-115969000D01*
X106855000Y-117089000D02*
X108180000Y-117089000D01*
X106838000Y-117129000D02*
X108180000Y-117129000D01*
X107045000Y-116729000D02*
X108180000Y-116729000D01*
X107155000Y-116569000D02*
X108180000Y-116569000D01*
X110260000Y-116049000D02*
X110774000Y-116049000D01*
X107745000Y-120934775D02*
X107745000Y-120434775D01*
X110260000Y-117690000D02*
X111763000Y-117690000D01*
X106973000Y-116849000D02*
X108180000Y-116849000D01*
X106677000Y-117690000D02*
X108180000Y-117690000D01*
X110260000Y-115849000D02*
X110471000Y-115849000D01*
X110260000Y-116689000D02*
X111369000Y-116689000D01*
X106792000Y-117249000D02*
X108180000Y-117249000D01*
X110260000Y-117089000D02*
X111585000Y-117089000D01*
X106778000Y-117289000D02*
X108180000Y-117289000D01*
X110260000Y-116969000D02*
X111530000Y-116969000D01*
X110260000Y-117009000D02*
X111549000Y-117009000D01*
X107837000Y-115929000D02*
X108180000Y-115929000D01*
X110260000Y-116929000D02*
X111510000Y-116929000D01*
X106822000Y-117169000D02*
X108180000Y-117169000D01*
X106664000Y-117770000D02*
X108180000Y-117770000D01*
X106644000Y-117970000D02*
X111796000Y-117970000D01*
X107185000Y-116529000D02*
X108180000Y-116529000D01*
X110260000Y-116409000D02*
X111157000Y-116409000D01*
X110260000Y-116769000D02*
X111420000Y-116769000D01*
X110260000Y-117249000D02*
X111648000Y-117249000D01*
X108543000Y-115609000D02*
X109897000Y-115609000D01*
X110260000Y-116569000D02*
X111285000Y-116569000D01*
X110260000Y-115929000D02*
X110603000Y-115929000D01*
X110260000Y-117570000D02*
X111740000Y-117570000D01*
X110260000Y-117369000D02*
X111688000Y-117369000D01*
X110260000Y-116849000D02*
X111467000Y-116849000D01*
X106647000Y-117930000D02*
X111793000Y-117930000D01*
X107666000Y-116049000D02*
X108180000Y-116049000D01*
X110260000Y-116169000D02*
X110919000Y-116169000D01*
X106996000Y-116809000D02*
X108180000Y-116809000D01*
X110260000Y-117810000D02*
X111781000Y-117810000D01*
X106872000Y-117049000D02*
X108180000Y-117049000D01*
X110260000Y-116529000D02*
X111255000Y-116529000D01*
X108305000Y-115689000D02*
X110135000Y-115689000D01*
X107319000Y-116369000D02*
X108180000Y-116369000D01*
X110260000Y-116809000D02*
X111444000Y-116809000D01*
X110260000Y-116329000D02*
X111084000Y-116329000D01*
X107477000Y-116209000D02*
X108180000Y-116209000D01*
X106684000Y-117650000D02*
X108180000Y-117650000D01*
X106930000Y-116929000D02*
X108180000Y-116929000D01*
X107098000Y-116649000D02*
X108180000Y-116649000D01*
X110260000Y-116249000D02*
X111005000Y-116249000D01*
X107020000Y-116769000D02*
X108180000Y-116769000D01*
X110260000Y-116489000D02*
X111224000Y-116489000D01*
X106641000Y-118050000D02*
X111799000Y-118050000D01*
X107283000Y-116409000D02*
X108180000Y-116409000D01*
X108936000Y-115529000D02*
X109504000Y-115529000D01*
X106670000Y-117730000D02*
X108180000Y-117730000D01*
X107969000Y-115849000D02*
X108180000Y-115849000D01*
X106651000Y-117890000D02*
X108180000Y-117890000D01*
X106806000Y-117209000D02*
X108180000Y-117209000D01*
X106692000Y-117610000D02*
X108180000Y-117610000D01*
X108415000Y-115649000D02*
X110025000Y-115649000D01*
X106910000Y-116969000D02*
X108180000Y-116969000D01*
X106740000Y-117409000D02*
X108180000Y-117409000D01*
X107249000Y-116449000D02*
X108180000Y-116449000D01*
X107071000Y-116689000D02*
X108180000Y-116689000D01*
X107356000Y-116329000D02*
X108180000Y-116329000D01*
X106642000Y-118010000D02*
X111798000Y-118010000D01*
X110260000Y-117490000D02*
X111721000Y-117490000D01*
X110260000Y-117129000D02*
X111602000Y-117129000D01*
X106952000Y-116889000D02*
X108180000Y-116889000D01*
X110260000Y-117409000D02*
X111700000Y-117409000D01*
X110260000Y-117650000D02*
X111756000Y-117650000D01*
X110260000Y-117169000D02*
X111618000Y-117169000D01*
X106752000Y-117369000D02*
X108180000Y-117369000D01*
X110260000Y-116289000D02*
X111046000Y-116289000D01*
X106655000Y-117850000D02*
X108180000Y-117850000D01*
X106719000Y-117490000D02*
X108180000Y-117490000D01*
X107521000Y-116169000D02*
X108180000Y-116169000D01*
X107720000Y-116009000D02*
X108180000Y-116009000D01*
X110260000Y-116089000D02*
X110825000Y-116089000D01*
X111840000Y-118130000D02*
G75*
G03*
X111840000Y-118130000I-2620000J0D01*
G01*
X156150000Y-104140000D02*
X156150000Y-102810000D01*
X158810000Y-105410000D02*
X158810000Y-113090000D01*
X156150000Y-105410000D02*
X158810000Y-105410000D01*
X156150000Y-102810000D02*
X157480000Y-102810000D01*
X156150000Y-105410000D02*
X156150000Y-113090000D01*
X156150000Y-113090000D02*
X158810000Y-113090000D01*
%LPC*%
D12*
X129540000Y-99060000D03*
D13*
X129540000Y-101600000D03*
X129540000Y-104140000D03*
X129540000Y-106680000D03*
X129540000Y-109220000D03*
X129540000Y-111760000D03*
X129540000Y-114300000D03*
X129540000Y-116840000D03*
D12*
X144780000Y-101600000D03*
D13*
X144780000Y-104140000D03*
X144780000Y-106680000D03*
D14*
X128270000Y-124460000D03*
D15*
X120650000Y-124460000D03*
D12*
X139700000Y-132080000D03*
D13*
X137160000Y-132080000D03*
X134620000Y-132080000D03*
X132080000Y-132080000D03*
X129540000Y-132080000D03*
X127000000Y-132080000D03*
D16*
X160020000Y-96520000D03*
D17*
X160020000Y-99020000D03*
D12*
X124460000Y-109220000D03*
D13*
X124460000Y-111760000D03*
X124460000Y-114300000D03*
D14*
X144780000Y-93980000D03*
D15*
X137160000Y-93980000D03*
D12*
X152400000Y-99060000D03*
D13*
X152400000Y-101600000D03*
X152400000Y-104140000D03*
X152400000Y-106680000D03*
X152400000Y-109220000D03*
X152400000Y-111760000D03*
X152400000Y-114300000D03*
X152400000Y-116840000D03*
D14*
X147320000Y-91440000D03*
D15*
X139700000Y-91440000D03*
D12*
X139700000Y-99060000D03*
D13*
X139700000Y-101600000D03*
X139700000Y-104140000D03*
X139700000Y-106680000D03*
X139700000Y-109220000D03*
X139700000Y-111760000D03*
X139700000Y-114300000D03*
X139700000Y-116840000D03*
D14*
X129540000Y-121920000D03*
D15*
X121920000Y-121920000D03*
D12*
X111760000Y-104140000D03*
D13*
X111760000Y-106680000D03*
X111760000Y-109220000D03*
X111760000Y-111760000D03*
D12*
X116840000Y-99060000D03*
D13*
X116840000Y-101600000D03*
X116840000Y-104140000D03*
X116840000Y-106680000D03*
X116840000Y-109220000D03*
X116840000Y-111760000D03*
X116840000Y-114300000D03*
X116840000Y-116840000D03*
D12*
X127000000Y-109220000D03*
D13*
X127000000Y-111760000D03*
X127000000Y-114300000D03*
D12*
X142240000Y-101600000D03*
D13*
X142240000Y-104140000D03*
X142240000Y-106680000D03*
D16*
X109220000Y-119380000D03*
D17*
X109220000Y-116880000D03*
D12*
X157480000Y-104140000D03*
D13*
X157480000Y-106680000D03*
X157480000Y-109220000D03*
X157480000Y-111760000D03*
M02*
