G04 #@! TF.GenerationSoftware,KiCad,Pcbnew,(6.0.2)*
G04 #@! TF.CreationDate,2025-01-10T20:51:35+01:00*
G04 #@! TF.ProjectId,adapter,61646170-7465-4722-9e6b-696361645f70,rev?*
G04 #@! TF.SameCoordinates,Original*
G04 #@! TF.FileFunction,Legend,Top*
G04 #@! TF.FilePolarity,Positive*
%FSLAX46Y46*%
G04 Gerber Fmt 4.6, Leading zero omitted, Abs format (unit mm)*
G04 Created by KiCad (PCBNEW (6.0.2)) date 2025-01-10 20:51:35*
%MOMM*%
%LPD*%
G01*
G04 APERTURE LIST*
%ADD10C,0.150000*%
%ADD11C,0.120000*%
%ADD12R,1.700000X1.700000*%
%ADD13O,1.700000X1.700000*%
G04 APERTURE END LIST*
D10*
X141906666Y-85582380D02*
X141906666Y-86296666D01*
X141859047Y-86439523D01*
X141763809Y-86534761D01*
X141620952Y-86582380D01*
X141525714Y-86582380D01*
X142335238Y-85677619D02*
X142382857Y-85630000D01*
X142478095Y-85582380D01*
X142716190Y-85582380D01*
X142811428Y-85630000D01*
X142859047Y-85677619D01*
X142906666Y-85772857D01*
X142906666Y-85868095D01*
X142859047Y-86010952D01*
X142287619Y-86582380D01*
X142906666Y-86582380D01*
X136826666Y-82227380D02*
X136826666Y-82941666D01*
X136779047Y-83084523D01*
X136683809Y-83179761D01*
X136540952Y-83227380D01*
X136445714Y-83227380D01*
X137826666Y-83227380D02*
X137255238Y-83227380D01*
X137540952Y-83227380D02*
X137540952Y-82227380D01*
X137445714Y-82370238D01*
X137350476Y-82465476D01*
X137255238Y-82513095D01*
X149526666Y-82227380D02*
X149526666Y-82941666D01*
X149479047Y-83084523D01*
X149383809Y-83179761D01*
X149240952Y-83227380D01*
X149145714Y-83227380D01*
X149907619Y-82227380D02*
X150526666Y-82227380D01*
X150193333Y-82608333D01*
X150336190Y-82608333D01*
X150431428Y-82655952D01*
X150479047Y-82703571D01*
X150526666Y-82798809D01*
X150526666Y-83036904D01*
X150479047Y-83132142D01*
X150431428Y-83179761D01*
X150336190Y-83227380D01*
X150050476Y-83227380D01*
X149955238Y-83179761D01*
X149907619Y-83132142D01*
D11*
X140910000Y-90170000D02*
X140910000Y-102930000D01*
X140910000Y-102930000D02*
X143570000Y-102930000D01*
X143570000Y-87570000D02*
X143570000Y-88900000D01*
X140910000Y-90170000D02*
X143570000Y-90170000D01*
X143570000Y-90170000D02*
X143570000Y-102930000D01*
X142240000Y-87570000D02*
X143570000Y-87570000D01*
X135830000Y-85105000D02*
X135830000Y-83775000D01*
X135830000Y-86375000D02*
X138490000Y-86375000D01*
X138490000Y-86375000D02*
X138490000Y-104215000D01*
X135830000Y-83775000D02*
X137160000Y-83775000D01*
X135830000Y-86375000D02*
X135830000Y-104215000D01*
X135830000Y-104215000D02*
X138490000Y-104215000D01*
X148530000Y-85105000D02*
X148530000Y-83775000D01*
X148530000Y-86375000D02*
X151190000Y-86375000D01*
X148530000Y-104215000D02*
X151190000Y-104215000D01*
X148530000Y-83775000D02*
X149860000Y-83775000D01*
X151190000Y-86375000D02*
X151190000Y-104215000D01*
X148530000Y-86375000D02*
X148530000Y-104215000D01*
%LPC*%
D12*
X142240000Y-88900000D03*
D13*
X142240000Y-91440000D03*
X142240000Y-93980000D03*
X142240000Y-96520000D03*
X142240000Y-99060000D03*
X142240000Y-101600000D03*
D12*
X137160000Y-85105000D03*
D13*
X137160000Y-87645000D03*
X137160000Y-90185000D03*
X137160000Y-92725000D03*
X137160000Y-95265000D03*
X137160000Y-97805000D03*
X137160000Y-100345000D03*
X137160000Y-102885000D03*
D12*
X149860000Y-85105000D03*
D13*
X149860000Y-87645000D03*
X149860000Y-90185000D03*
X149860000Y-92725000D03*
X149860000Y-95265000D03*
X149860000Y-97805000D03*
X149860000Y-100345000D03*
X149860000Y-102885000D03*
M02*
